<svg xmlns="http://www.w3.org/2000/svg" xmlns:xlink="http://www.w3.org/1999/xlink" width="500" zoomAndPan="magnify" viewBox="0 0 375 374.999991" height="500" preserveAspectRatio="xMidYMid meet" version="1.0"><defs><g/><clipPath id="6a9f514819"><path d="M 191 147 L 262.5 147 L 262.5 198.566406 L 191 198.566406 Z M 191 147 " clip-rule="nonzero"/></clipPath><clipPath id="03f63aa182"><path d="M 112.5 147 L 184 147 L 184 198.566406 L 112.5 198.566406 Z M 112.5 147 " clip-rule="nonzero"/></clipPath><clipPath id="2791fd6ed1"><path d="M 185 140 L 188 140 L 188 198.566406 L 185 198.566406 Z M 185 140 " clip-rule="nonzero"/></clipPath><clipPath id="791147ae09"><path d="M 187 140 L 190 140 L 190 198.566406 L 187 198.566406 Z M 187 140 " clip-rule="nonzero"/></clipPath></defs><g clip-path="url(#6a9f514819)"><path fill="#ffffff" d="M 247.675781 147.9375 C 243.722656 154.371094 231.734375 174.078125 224.03125 188.871094 L 223.46875 189.949219 C 223.46875 189.949219 199.230469 190.171875 191.902344 194.816406 L 191.902344 198.558594 C 199.714844 193.90625 228.226562 194.222656 228.226562 194.222656 C 241.132812 176.117188 262.488281 151.035156 262.488281 151.035156 C 257.449219 149.367188 252.46875 148.398438 247.675781 147.9375 " fill-opacity="1" fill-rule="nonzero"/></g><path fill="#ffffff" d="M 242.179688 142.878906 C 237.664062 151.554688 228.574219 169.285156 222.472656 183.007812 L 221.9375 184.214844 C 221.9375 184.214844 196.292969 183.25 191.902344 189.472656 L 191.902344 192.3125 C 203.648438 186.773438 222.3125 187.976562 222.3125 187.976562 C 231.742188 169.867188 247.339844 144.789062 247.339844 144.789062 C 245.609375 144.003906 243.882812 143.375 242.179688 142.878906 " fill-opacity="1" fill-rule="nonzero"/><path fill="#ffffff" d="M 191.902344 140.953125 L 191.902344 186.773438 C 197.039062 181.867188 220.703125 182.203125 220.703125 182.203125 C 229.1875 163.125 243.222656 136.703125 243.222656 136.703125 C 224.132812 126.5625 191.902344 140.953125 191.902344 140.953125 " fill-opacity="1" fill-rule="nonzero"/><g clip-path="url(#03f63aa182)"><path fill="#ffffff" d="M 127.324219 147.9375 C 131.277344 154.371094 143.265625 174.078125 150.96875 188.871094 L 151.53125 189.949219 C 151.53125 189.949219 175.769531 190.171875 183.097656 194.816406 L 183.097656 198.558594 C 175.285156 193.90625 146.773438 194.222656 146.773438 194.222656 C 133.867188 176.117188 112.511719 151.035156 112.511719 151.035156 C 117.550781 149.367188 122.53125 148.398438 127.324219 147.9375 " fill-opacity="1" fill-rule="nonzero"/></g><path fill="#ffffff" d="M 132.820312 142.878906 C 137.335938 151.554688 146.425781 169.285156 152.527344 183.007812 L 153.0625 184.214844 C 153.0625 184.214844 178.707031 183.25 183.097656 189.472656 L 183.097656 192.3125 C 171.351562 186.773438 152.6875 187.976562 152.6875 187.976562 C 143.257812 169.867188 127.660156 144.789062 127.660156 144.789062 C 129.394531 144.003906 131.117188 143.375 132.820312 142.878906 " fill-opacity="1" fill-rule="nonzero"/><path fill="#ffffff" d="M 183.097656 140.953125 L 183.097656 186.773438 C 177.960938 181.867188 154.296875 182.203125 154.296875 182.203125 C 145.8125 163.125 131.777344 136.703125 131.777344 136.703125 C 150.867188 126.5625 183.097656 140.953125 183.097656 140.953125 " fill-opacity="1" fill-rule="nonzero"/><g clip-path="url(#2791fd6ed1)"><path fill="#ffffff" d="M 187.5 140.953125 C 186.191406 140.953125 185.128906 142.011719 185.128906 143.320312 L 185.128906 196.191406 C 185.128906 197.5 186.191406 198.558594 187.5 198.558594 L 187.5 140.953125 " fill-opacity="1" fill-rule="nonzero"/></g><g clip-path="url(#791147ae09)"><path fill="#ffffff" d="M 187.5 140.953125 L 187.5 198.558594 C 188.808594 198.558594 189.871094 197.5 189.871094 196.191406 L 189.871094 143.320312 C 189.871094 142.011719 188.808594 140.953125 187.5 140.953125 " fill-opacity="1" fill-rule="nonzero"/></g><g fill="#ffffff" fill-opacity="1"><g transform="translate(41.976564, 226.440103)"><g><path d="M 18.203125 -7.3125 L 16.6875 -7.109375 C 16.664062 -6.328125 16.648438 -5.546875 16.640625 -4.765625 C 16.628906 -3.992188 16.625 -3.207031 16.625 -2.40625 L 16.625 -1.203125 C 15.632812 -0.660156 14.65625 -0.253906 13.6875 0.015625 C 12.71875 0.285156 11.675781 0.421875 10.5625 0.421875 C 9.082031 0.421875 7.742188 0.179688 6.546875 -0.296875 C 5.359375 -0.785156 4.335938 -1.453125 3.484375 -2.296875 C 2.640625 -3.148438 1.988281 -4.160156 1.53125 -5.328125 C 1.070312 -6.492188 0.84375 -7.769531 0.84375 -9.15625 C 0.84375 -10.539062 1.070312 -11.816406 1.53125 -12.984375 C 2 -14.160156 2.664062 -15.171875 3.53125 -16.015625 C 4.40625 -16.867188 5.457031 -17.539062 6.6875 -18.03125 C 7.925781 -18.519531 9.3125 -18.765625 10.84375 -18.765625 C 11.738281 -18.765625 12.632812 -18.664062 13.53125 -18.46875 C 14.425781 -18.269531 15.367188 -17.925781 16.359375 -17.4375 L 16.46875 -13.46875 L 14.21875 -13.46875 L 13.71875 -16.578125 C 12.84375 -17.003906 11.945312 -17.21875 11.03125 -17.21875 C 9.21875 -17.21875 7.78125 -16.515625 6.71875 -15.109375 C 5.65625 -13.710938 5.125 -11.726562 5.125 -9.15625 C 5.125 -7.882812 5.273438 -6.75 5.578125 -5.75 C 5.890625 -4.75 6.3125 -3.90625 6.84375 -3.21875 C 7.375 -2.53125 8.003906 -2.007812 8.734375 -1.65625 C 9.460938 -1.300781 10.253906 -1.125 11.109375 -1.125 C 11.648438 -1.125 12.144531 -1.1875 12.59375 -1.3125 L 12.59375 -2.40625 C 12.59375 -3.1875 12.585938 -3.957031 12.578125 -4.71875 C 12.578125 -5.488281 12.566406 -6.269531 12.546875 -7.0625 L 10.46875 -7.3125 L 10.46875 -8.703125 L 18.203125 -8.703125 Z M 18.203125 -7.3125 "/></g></g></g><g fill="#ffffff" fill-opacity="1"><g transform="translate(60.845994, 226.440103)"><g><path d="M 15.6875 -5.4375 L 15.40625 0 L 0.890625 0 L 0.890625 -1.40625 L 3.15625 -1.65625 C 3.195312 -2.8125 3.21875 -3.972656 3.21875 -5.140625 C 3.21875 -6.304688 3.21875 -7.488281 3.21875 -8.6875 L 3.21875 -9.65625 C 3.21875 -10.832031 3.21875 -12.003906 3.21875 -13.171875 C 3.21875 -14.335938 3.195312 -15.507812 3.15625 -16.6875 L 0.890625 -16.9375 L 0.890625 -18.34375 L 9.765625 -18.34375 L 9.765625 -16.9375 L 7.359375 -16.6875 C 7.328125 -15.507812 7.3125 -14.34375 7.3125 -13.1875 C 7.3125 -12.03125 7.3125 -10.851562 7.3125 -9.65625 L 7.3125 -8.6875 C 7.3125 -7.488281 7.3125 -6.296875 7.3125 -5.109375 C 7.3125 -3.921875 7.328125 -2.734375 7.359375 -1.546875 L 12.6875 -1.546875 L 13.46875 -5.4375 Z M 15.6875 -5.4375 "/></g></g></g><g fill="#ffffff" fill-opacity="1"><g transform="translate(77.083774, 226.440103)"><g><path d="M 10.78125 -7.25 L 8.546875 -13.5 L 6.21875 -7.25 Z M 18.734375 -1.375 L 18.734375 0 L 10.5 0 L 10.5 -1.375 L 12.796875 -1.65625 L 11.34375 -5.71875 L 5.65625 -5.71875 L 4.171875 -1.734375 L 6.4375 -1.40625 L 6.4375 0 L 0.140625 0 L 0.140625 -1.40625 L 2.625 -1.765625 L 8.84375 -18.34375 L 10.53125 -18.34375 L 16.890625 -1.59375 Z M 18.734375 -1.375 "/></g></g></g><g fill="#ffffff" fill-opacity="1"><g transform="translate(95.925199, 226.440103)"><g><path d="M 8.375 -1.546875 C 9.25 -1.546875 10.050781 -1.710938 10.78125 -2.046875 C 11.507812 -2.378906 12.128906 -2.867188 12.640625 -3.515625 C 13.148438 -4.160156 13.546875 -4.957031 13.828125 -5.90625 C 14.109375 -6.863281 14.25 -7.957031 14.25 -9.1875 C 14.25 -10.414062 14.109375 -11.503906 13.828125 -12.453125 C 13.546875 -13.410156 13.144531 -14.207031 12.625 -14.84375 C 12.101562 -15.488281 11.484375 -15.972656 10.765625 -16.296875 C 10.046875 -16.628906 9.238281 -16.796875 8.34375 -16.796875 L 7.359375 -16.796875 C 7.328125 -15.617188 7.3125 -14.4375 7.3125 -13.25 C 7.3125 -12.070312 7.3125 -10.875 7.3125 -9.65625 L 7.3125 -8.953125 C 7.3125 -7.648438 7.3125 -6.382812 7.3125 -5.15625 C 7.3125 -3.9375 7.328125 -2.734375 7.359375 -1.546875 Z M 9.359375 -18.34375 C 10.710938 -18.34375 11.953125 -18.144531 13.078125 -17.75 C 14.210938 -17.363281 15.1875 -16.78125 16 -16 C 16.8125 -15.226562 17.4375 -14.28125 17.875 -13.15625 C 18.3125 -12.039062 18.53125 -10.753906 18.53125 -9.296875 C 18.53125 -7.785156 18.285156 -6.453125 17.796875 -5.296875 C 17.316406 -4.140625 16.640625 -3.164062 15.765625 -2.375 C 14.898438 -1.59375 13.867188 -1 12.671875 -0.59375 C 11.484375 -0.195312 10.191406 0 8.796875 0 L 0.890625 0 L 0.890625 -1.40625 L 3.15625 -1.65625 C 3.195312 -2.8125 3.21875 -3.988281 3.21875 -5.1875 C 3.21875 -6.394531 3.21875 -7.648438 3.21875 -8.953125 L 3.21875 -9.65625 C 3.21875 -10.832031 3.21875 -12.003906 3.21875 -13.171875 C 3.21875 -14.335938 3.195312 -15.507812 3.15625 -16.6875 L 0.890625 -16.9375 L 0.890625 -18.34375 Z M 9.359375 -18.34375 "/></g></g></g><g fill="#ffffff" fill-opacity="1"><g transform="translate(115.298557, 226.440103)"><g><path d="M 10.53125 -8.203125 L 10.53125 -6.296875 C 10.53125 -5.816406 10.53125 -5.375 10.53125 -4.96875 C 10.53125 -4.570312 10.53125 -4.191406 10.53125 -3.828125 C 10.53125 -3.472656 10.535156 -3.125 10.546875 -2.78125 C 10.554688 -2.4375 10.5625 -2.070312 10.5625 -1.6875 L 13.125 -1.40625 L 13.125 0 L 3.84375 0 L 3.84375 -1.40625 L 6.40625 -1.6875 C 6.425781 -2.425781 6.4375 -3.128906 6.4375 -3.796875 C 6.4375 -4.472656 6.4375 -5.304688 6.4375 -6.296875 L 6.4375 -7.890625 L 1.875 -16.75 L 0.0625 -16.9375 L 0.0625 -18.34375 L 8.65625 -18.34375 L 8.65625 -16.9375 L 6.4375 -16.6875 L 9.6875 -9.46875 L 13.21875 -16.625 L 10.96875 -16.9375 L 10.96875 -18.34375 L 16.90625 -18.34375 L 16.90625 -16.9375 L 14.84375 -16.578125 Z M 10.53125 -8.203125 "/></g></g></g><g fill="#ffffff" fill-opacity="1"><g transform="translate(132.26424, 226.440103)"><g><path d="M 8.984375 -10.890625 C 9.992188 -10.535156 10.832031 -10.144531 11.5 -9.71875 C 12.175781 -9.300781 12.710938 -8.851562 13.109375 -8.375 C 13.515625 -7.90625 13.804688 -7.410156 13.984375 -6.890625 C 14.160156 -6.378906 14.25 -5.851562 14.25 -5.3125 C 14.25 -4.5 14.070312 -3.742188 13.71875 -3.046875 C 13.363281 -2.359375 12.863281 -1.753906 12.21875 -1.234375 C 11.570312 -0.710938 10.796875 -0.304688 9.890625 -0.015625 C 8.992188 0.273438 7.984375 0.421875 6.859375 0.421875 C 5.796875 0.421875 4.738281 0.289062 3.6875 0.03125 C 2.644531 -0.21875 1.742188 -0.570312 0.984375 -1.03125 L 1.140625 -5.15625 L 3.46875 -5.15625 L 4.03125 -1.796875 C 4.457031 -1.585938 4.894531 -1.421875 5.34375 -1.296875 C 5.789062 -1.179688 6.285156 -1.125 6.828125 -1.125 C 8.003906 -1.125 8.921875 -1.394531 9.578125 -1.9375 C 10.234375 -2.476562 10.5625 -3.195312 10.5625 -4.09375 C 10.5625 -4.800781 10.332031 -5.359375 9.875 -5.765625 C 9.414062 -6.179688 8.679688 -6.570312 7.671875 -6.9375 L 6.296875 -7.453125 C 4.640625 -8.046875 3.347656 -8.832031 2.421875 -9.8125 C 1.492188 -10.789062 1.03125 -11.984375 1.03125 -13.390625 C 1.03125 -14.171875 1.179688 -14.882812 1.484375 -15.53125 C 1.796875 -16.1875 2.242188 -16.753906 2.828125 -17.234375 C 3.421875 -17.710938 4.132812 -18.085938 4.96875 -18.359375 C 5.800781 -18.628906 6.75 -18.765625 7.8125 -18.765625 C 8.84375 -18.765625 9.804688 -18.632812 10.703125 -18.375 C 11.609375 -18.125 12.398438 -17.765625 13.078125 -17.296875 L 12.875 -13.46875 L 10.578125 -13.46875 L 10.03125 -16.765625 C 9.65625 -16.921875 9.289062 -17.035156 8.9375 -17.109375 C 8.582031 -17.179688 8.21875 -17.21875 7.84375 -17.21875 C 6.90625 -17.21875 6.117188 -16.972656 5.484375 -16.484375 C 4.847656 -16.003906 4.53125 -15.316406 4.53125 -14.421875 C 4.53125 -13.640625 4.789062 -13.023438 5.3125 -12.578125 C 5.84375 -12.128906 6.582031 -11.734375 7.53125 -11.390625 Z M 8.984375 -10.890625 "/></g></g></g><g fill="#ffffff" fill-opacity="1"><g transform="translate(147.214205, 226.440103)"><g><path d="M 3.046875 -20.5 C 3.648438 -20.5 4.125 -20.320312 4.46875 -19.96875 C 4.8125 -19.613281 4.984375 -19.070312 4.984375 -18.34375 C 4.984375 -18.019531 4.953125 -17.648438 4.890625 -17.234375 C 4.835938 -16.828125 4.769531 -16.421875 4.6875 -16.015625 C 4.601562 -15.609375 4.519531 -15.226562 4.4375 -14.875 C 4.351562 -14.519531 4.289062 -14.238281 4.25 -14.03125 L 3.71875 -11.34375 L 2.375 -11.34375 L 1.84375 -14.03125 C 1.8125 -14.21875 1.753906 -14.492188 1.671875 -14.859375 C 1.597656 -15.222656 1.519531 -15.609375 1.4375 -16.015625 C 1.351562 -16.421875 1.28125 -16.828125 1.21875 -17.234375 C 1.15625 -17.648438 1.125 -18.019531 1.125 -18.34375 C 1.125 -19.070312 1.296875 -19.613281 1.640625 -19.96875 C 1.984375 -20.320312 2.453125 -20.5 3.046875 -20.5 Z M 3.046875 -20.5 "/></g></g></g><g fill="#ffffff" fill-opacity="1"><g transform="translate(153.317373, 226.440103)"><g/></g></g><g fill="#ffffff" fill-opacity="1"><g transform="translate(159.476537, 226.440103)"><g><path d="M 16.4375 -5.15625 L 16.328125 -0.890625 C 15.535156 -0.460938 14.664062 -0.140625 13.71875 0.078125 C 12.769531 0.304688 11.765625 0.421875 10.703125 0.421875 C 9.265625 0.421875 7.941406 0.222656 6.734375 -0.171875 C 5.523438 -0.578125 4.484375 -1.179688 3.609375 -1.984375 C 2.734375 -2.785156 2.050781 -3.785156 1.5625 -4.984375 C 1.082031 -6.179688 0.84375 -7.570312 0.84375 -9.15625 C 0.84375 -10.738281 1.097656 -12.128906 1.609375 -13.328125 C 2.117188 -14.535156 2.820312 -15.539062 3.71875 -16.34375 C 4.613281 -17.15625 5.679688 -17.757812 6.921875 -18.15625 C 8.171875 -18.5625 9.519531 -18.765625 10.96875 -18.765625 C 11.863281 -18.765625 12.71875 -18.664062 13.53125 -18.46875 C 14.34375 -18.269531 15.179688 -17.925781 16.046875 -17.4375 L 16.15625 -13.1875 L 13.9375 -13.1875 L 13.390625 -16.71875 C 12.597656 -17.050781 11.800781 -17.21875 11 -17.21875 C 10.175781 -17.21875 9.40625 -17.046875 8.6875 -16.703125 C 7.96875 -16.359375 7.34375 -15.84375 6.8125 -15.15625 C 6.28125 -14.476562 5.863281 -13.632812 5.5625 -12.625 C 5.269531 -11.613281 5.125 -10.457031 5.125 -9.15625 C 5.125 -7.851562 5.269531 -6.703125 5.5625 -5.703125 C 5.863281 -4.703125 6.28125 -3.859375 6.8125 -3.171875 C 7.34375 -2.492188 7.96875 -1.984375 8.6875 -1.640625 C 9.40625 -1.296875 10.175781 -1.125 11 -1.125 C 11.875 -1.125 12.757812 -1.289062 13.65625 -1.625 L 14.203125 -5.15625 Z M 16.4375 -5.15625 "/></g></g></g><g fill="#ffffff" fill-opacity="1"><g transform="translate(176.890164, 226.440103)"><g><path d="M 5.1875 -9.15625 C 5.1875 -8.144531 5.269531 -7.160156 5.4375 -6.203125 C 5.601562 -5.242188 5.875 -4.382812 6.25 -3.625 C 6.632812 -2.863281 7.125 -2.253906 7.71875 -1.796875 C 8.320312 -1.347656 9.050781 -1.125 9.90625 -1.125 C 10.769531 -1.125 11.5 -1.347656 12.09375 -1.796875 C 12.6875 -2.253906 13.171875 -2.863281 13.546875 -3.625 C 13.921875 -4.382812 14.195312 -5.242188 14.375 -6.203125 C 14.550781 -7.160156 14.640625 -8.144531 14.640625 -9.15625 C 14.640625 -10.164062 14.550781 -11.15625 14.375 -12.125 C 14.195312 -13.09375 13.921875 -13.953125 13.546875 -14.703125 C 13.171875 -15.460938 12.6875 -16.070312 12.09375 -16.53125 C 11.5 -16.988281 10.769531 -17.21875 9.90625 -17.21875 C 9.050781 -17.21875 8.320312 -16.988281 7.71875 -16.53125 C 7.125 -16.070312 6.632812 -15.460938 6.25 -14.703125 C 5.875 -13.953125 5.601562 -13.09375 5.4375 -12.125 C 5.269531 -11.15625 5.1875 -10.164062 5.1875 -9.15625 Z M 9.90625 -18.765625 C 11.007812 -18.765625 12.097656 -18.5625 13.171875 -18.15625 C 14.242188 -17.757812 15.207031 -17.160156 16.0625 -16.359375 C 16.925781 -15.566406 17.617188 -14.566406 18.140625 -13.359375 C 18.660156 -12.160156 18.921875 -10.757812 18.921875 -9.15625 C 18.921875 -7.550781 18.660156 -6.148438 18.140625 -4.953125 C 17.617188 -3.753906 16.929688 -2.757812 16.078125 -1.96875 C 15.234375 -1.175781 14.269531 -0.578125 13.1875 -0.171875 C 12.101562 0.222656 11.007812 0.421875 9.90625 0.421875 C 8.8125 0.421875 7.722656 0.222656 6.640625 -0.171875 C 5.554688 -0.578125 4.585938 -1.175781 3.734375 -1.96875 C 2.890625 -2.757812 2.203125 -3.753906 1.671875 -4.953125 C 1.148438 -6.148438 0.890625 -7.550781 0.890625 -9.15625 C 0.890625 -10.757812 1.148438 -12.160156 1.671875 -13.359375 C 2.203125 -14.566406 2.894531 -15.566406 3.75 -16.359375 C 4.613281 -17.160156 5.582031 -17.757812 6.65625 -18.15625 C 7.726562 -18.5625 8.8125 -18.765625 9.90625 -18.765625 Z M 9.90625 -18.765625 "/></g></g></g><g fill="#ffffff" fill-opacity="1"><g transform="translate(196.711456, 226.440103)"><g><path d="M 15.6875 -5.4375 L 15.40625 0 L 0.890625 0 L 0.890625 -1.40625 L 3.15625 -1.65625 C 3.195312 -2.8125 3.21875 -3.972656 3.21875 -5.140625 C 3.21875 -6.304688 3.21875 -7.488281 3.21875 -8.6875 L 3.21875 -9.65625 C 3.21875 -10.832031 3.21875 -12.003906 3.21875 -13.171875 C 3.21875 -14.335938 3.195312 -15.507812 3.15625 -16.6875 L 0.890625 -16.9375 L 0.890625 -18.34375 L 9.765625 -18.34375 L 9.765625 -16.9375 L 7.359375 -16.6875 C 7.328125 -15.507812 7.3125 -14.34375 7.3125 -13.1875 C 7.3125 -12.03125 7.3125 -10.851562 7.3125 -9.65625 L 7.3125 -8.6875 C 7.3125 -7.488281 7.3125 -6.296875 7.3125 -5.109375 C 7.3125 -3.921875 7.328125 -2.734375 7.359375 -1.546875 L 12.6875 -1.546875 L 13.46875 -5.4375 Z M 15.6875 -5.4375 "/></g></g></g><g fill="#ffffff" fill-opacity="1"><g transform="translate(212.949236, 226.440103)"><g><path d="M 15.6875 -5.4375 L 15.40625 0 L 0.890625 0 L 0.890625 -1.40625 L 3.15625 -1.65625 C 3.195312 -2.8125 3.21875 -3.972656 3.21875 -5.140625 C 3.21875 -6.304688 3.21875 -7.488281 3.21875 -8.6875 L 3.21875 -9.65625 C 3.21875 -10.832031 3.21875 -12.003906 3.21875 -13.171875 C 3.21875 -14.335938 3.195312 -15.507812 3.15625 -16.6875 L 0.890625 -16.9375 L 0.890625 -18.34375 L 9.765625 -18.34375 L 9.765625 -16.9375 L 7.359375 -16.6875 C 7.328125 -15.507812 7.3125 -14.34375 7.3125 -13.1875 C 7.3125 -12.03125 7.3125 -10.851562 7.3125 -9.65625 L 7.3125 -8.6875 C 7.3125 -7.488281 7.3125 -6.296875 7.3125 -5.109375 C 7.3125 -3.921875 7.328125 -2.734375 7.359375 -1.546875 L 12.6875 -1.546875 L 13.46875 -5.4375 Z M 15.6875 -5.4375 "/></g></g></g><g fill="#ffffff" fill-opacity="1"><g transform="translate(229.187016, 226.440103)"><g><path d="M 16.046875 -4.875 L 15.84375 0 L 0.890625 0 L 0.890625 -1.40625 L 3.15625 -1.65625 C 3.195312 -2.8125 3.21875 -3.972656 3.21875 -5.140625 C 3.21875 -6.304688 3.21875 -7.488281 3.21875 -8.6875 L 3.21875 -9.65625 C 3.21875 -10.832031 3.21875 -12.003906 3.21875 -13.171875 C 3.21875 -14.335938 3.195312 -15.507812 3.15625 -16.6875 L 0.890625 -16.9375 L 0.890625 -18.34375 L 15.28125 -18.34375 L 15.484375 -13.46875 L 13.390625 -13.46875 L 12.796875 -16.796875 L 7.359375 -16.796875 C 7.328125 -15.734375 7.3125 -14.660156 7.3125 -13.578125 C 7.3125 -12.492188 7.3125 -11.394531 7.3125 -10.28125 L 10.890625 -10.28125 L 11.25 -12.765625 L 12.765625 -12.765625 L 12.765625 -6.265625 L 11.25 -6.265625 L 10.921875 -8.734375 L 7.3125 -8.734375 C 7.3125 -7.460938 7.3125 -6.234375 7.3125 -5.046875 C 7.3125 -3.867188 7.328125 -2.691406 7.359375 -1.515625 L 13.359375 -1.515625 L 13.9375 -4.875 Z M 16.046875 -4.875 "/></g></g></g><g fill="#ffffff" fill-opacity="1"><g transform="translate(245.928737, 226.440103)"><g><path d="M 16.4375 -5.15625 L 16.328125 -0.890625 C 15.535156 -0.460938 14.664062 -0.140625 13.71875 0.078125 C 12.769531 0.304688 11.765625 0.421875 10.703125 0.421875 C 9.265625 0.421875 7.941406 0.222656 6.734375 -0.171875 C 5.523438 -0.578125 4.484375 -1.179688 3.609375 -1.984375 C 2.734375 -2.785156 2.050781 -3.785156 1.5625 -4.984375 C 1.082031 -6.179688 0.84375 -7.570312 0.84375 -9.15625 C 0.84375 -10.738281 1.097656 -12.128906 1.609375 -13.328125 C 2.117188 -14.535156 2.820312 -15.539062 3.71875 -16.34375 C 4.613281 -17.15625 5.679688 -17.757812 6.921875 -18.15625 C 8.171875 -18.5625 9.519531 -18.765625 10.96875 -18.765625 C 11.863281 -18.765625 12.71875 -18.664062 13.53125 -18.46875 C 14.34375 -18.269531 15.179688 -17.925781 16.046875 -17.4375 L 16.15625 -13.1875 L 13.9375 -13.1875 L 13.390625 -16.71875 C 12.597656 -17.050781 11.800781 -17.21875 11 -17.21875 C 10.175781 -17.21875 9.40625 -17.046875 8.6875 -16.703125 C 7.96875 -16.359375 7.34375 -15.84375 6.8125 -15.15625 C 6.28125 -14.476562 5.863281 -13.632812 5.5625 -12.625 C 5.269531 -11.613281 5.125 -10.457031 5.125 -9.15625 C 5.125 -7.851562 5.269531 -6.703125 5.5625 -5.703125 C 5.863281 -4.703125 6.28125 -3.859375 6.8125 -3.171875 C 7.34375 -2.492188 7.96875 -1.984375 8.6875 -1.640625 C 9.40625 -1.296875 10.175781 -1.125 11 -1.125 C 11.875 -1.125 12.757812 -1.289062 13.65625 -1.625 L 14.203125 -5.15625 Z M 16.4375 -5.15625 "/></g></g></g><g fill="#ffffff" fill-opacity="1"><g transform="translate(263.342363, 226.440103)"><g><path d="M 11.109375 -16.796875 C 11.078125 -15.617188 11.0625 -14.4375 11.0625 -13.25 C 11.0625 -12.070312 11.0625 -10.875 11.0625 -9.65625 L 11.0625 -8.6875 C 11.0625 -7.507812 11.0625 -6.335938 11.0625 -5.171875 C 11.0625 -4.015625 11.078125 -2.851562 11.109375 -1.6875 L 13.65625 -1.40625 L 13.65625 0 L 4.375 0 L 4.375 -1.40625 L 6.921875 -1.6875 C 6.953125 -2.84375 6.96875 -4.003906 6.96875 -5.171875 C 6.96875 -6.335938 6.96875 -7.507812 6.96875 -8.6875 L 6.96875 -9.65625 C 6.96875 -10.851562 6.96875 -12.046875 6.96875 -13.234375 C 6.96875 -14.421875 6.953125 -15.609375 6.921875 -16.796875 L 3.21875 -16.796875 L 2.65625 -13.1875 L 0.5625 -13.1875 L 0.703125 -18.34375 L 17.328125 -18.34375 L 17.46875 -13.1875 L 15.375 -13.1875 L 14.8125 -16.796875 Z M 11.109375 -16.796875 "/></g></g></g><g fill="#ffffff" fill-opacity="1"><g transform="translate(281.371888, 226.440103)"><g><path d="M 7.359375 -16.6875 C 7.328125 -15.53125 7.3125 -14.367188 7.3125 -13.203125 C 7.3125 -12.035156 7.3125 -10.851562 7.3125 -9.65625 L 7.3125 -8.6875 C 7.3125 -7.507812 7.3125 -6.335938 7.3125 -5.171875 C 7.3125 -4.003906 7.328125 -2.832031 7.359375 -1.65625 L 9.625 -1.40625 L 9.625 0 L 0.890625 0 L 0.890625 -1.40625 L 3.15625 -1.65625 C 3.195312 -2.8125 3.21875 -3.972656 3.21875 -5.140625 C 3.21875 -6.304688 3.21875 -7.488281 3.21875 -8.6875 L 3.21875 -9.65625 C 3.21875 -10.832031 3.21875 -12.003906 3.21875 -13.171875 C 3.21875 -14.335938 3.195312 -15.507812 3.15625 -16.6875 L 0.890625 -16.9375 L 0.890625 -18.34375 L 9.625 -18.34375 L 9.625 -16.9375 Z M 7.359375 -16.6875 "/></g></g></g><g fill="#ffffff" fill-opacity="1"><g transform="translate(291.898438, 226.440103)"><g><path d="M 5.1875 -9.15625 C 5.1875 -8.144531 5.269531 -7.160156 5.4375 -6.203125 C 5.601562 -5.242188 5.875 -4.382812 6.25 -3.625 C 6.632812 -2.863281 7.125 -2.253906 7.71875 -1.796875 C 8.320312 -1.347656 9.050781 -1.125 9.90625 -1.125 C 10.769531 -1.125 11.5 -1.347656 12.09375 -1.796875 C 12.6875 -2.253906 13.171875 -2.863281 13.546875 -3.625 C 13.921875 -4.382812 14.195312 -5.242188 14.375 -6.203125 C 14.550781 -7.160156 14.640625 -8.144531 14.640625 -9.15625 C 14.640625 -10.164062 14.550781 -11.15625 14.375 -12.125 C 14.195312 -13.09375 13.921875 -13.953125 13.546875 -14.703125 C 13.171875 -15.460938 12.6875 -16.070312 12.09375 -16.53125 C 11.5 -16.988281 10.769531 -17.21875 9.90625 -17.21875 C 9.050781 -17.21875 8.320312 -16.988281 7.71875 -16.53125 C 7.125 -16.070312 6.632812 -15.460938 6.25 -14.703125 C 5.875 -13.953125 5.601562 -13.09375 5.4375 -12.125 C 5.269531 -11.15625 5.1875 -10.164062 5.1875 -9.15625 Z M 9.90625 -18.765625 C 11.007812 -18.765625 12.097656 -18.5625 13.171875 -18.15625 C 14.242188 -17.757812 15.207031 -17.160156 16.0625 -16.359375 C 16.925781 -15.566406 17.617188 -14.566406 18.140625 -13.359375 C 18.660156 -12.160156 18.921875 -10.757812 18.921875 -9.15625 C 18.921875 -7.550781 18.660156 -6.148438 18.140625 -4.953125 C 17.617188 -3.753906 16.929688 -2.757812 16.078125 -1.96875 C 15.234375 -1.175781 14.269531 -0.578125 13.1875 -0.171875 C 12.101562 0.222656 11.007812 0.421875 9.90625 0.421875 C 8.8125 0.421875 7.722656 0.222656 6.640625 -0.171875 C 5.554688 -0.578125 4.585938 -1.175781 3.734375 -1.96875 C 2.890625 -2.757812 2.203125 -3.753906 1.671875 -4.953125 C 1.148438 -6.148438 0.890625 -7.550781 0.890625 -9.15625 C 0.890625 -10.757812 1.148438 -12.160156 1.671875 -13.359375 C 2.203125 -14.566406 2.894531 -15.566406 3.75 -16.359375 C 4.613281 -17.160156 5.582031 -17.757812 6.65625 -18.15625 C 7.726562 -18.5625 8.8125 -18.765625 9.90625 -18.765625 Z M 9.90625 -18.765625 "/></g></g></g><g fill="#ffffff" fill-opacity="1"><g transform="translate(311.719741, 226.440103)"><g><path d="M 20.578125 -16.9375 L 17.96875 -16.578125 L 17.96875 0.28125 L 16.578125 0.28125 L 4.984375 -14.140625 L 4.984375 -1.765625 L 8.171875 -1.40625 L 8.171875 0 L 0.734375 0 L 0.734375 -1.40625 L 3.328125 -1.765625 L 3.328125 -16.21875 L 2.90625 -16.71875 L 1.015625 -16.90625 L 1.015625 -18.34375 L 6.53125 -18.34375 L 16.359375 -5.9375 L 16.359375 -16.578125 L 13.125 -16.9375 L 13.125 -18.34375 L 20.578125 -18.34375 Z M 20.578125 -16.9375 "/></g></g></g><g fill="#ffffff" fill-opacity="1"><g transform="translate(146.97247, 245.037553)"><g><path d="M 0.96875 0 L 0.96875 -8.015625 L 3.78125 -8.015625 C 4.332031 -8.015625 4.789062 -7.921875 5.15625 -7.734375 C 5.519531 -7.546875 5.789062 -7.289062 5.96875 -6.96875 C 6.144531 -6.644531 6.234375 -6.285156 6.234375 -5.890625 C 6.234375 -5.546875 6.171875 -5.257812 6.046875 -5.03125 C 5.929688 -4.8125 5.773438 -4.632812 5.578125 -4.5 C 5.378906 -4.375 5.164062 -4.28125 4.9375 -4.21875 L 4.9375 -4.140625 C 5.175781 -4.117188 5.421875 -4.03125 5.671875 -3.875 C 5.921875 -3.71875 6.128906 -3.492188 6.296875 -3.203125 C 6.460938 -2.910156 6.546875 -2.550781 6.546875 -2.125 C 6.546875 -1.726562 6.453125 -1.367188 6.265625 -1.046875 C 6.085938 -0.722656 5.800781 -0.46875 5.40625 -0.28125 C 5.007812 -0.09375 4.5 0 3.875 0 Z M 1.9375 -0.859375 L 3.875 -0.859375 C 4.507812 -0.859375 4.957031 -0.984375 5.21875 -1.234375 C 5.488281 -1.484375 5.625 -1.78125 5.625 -2.125 C 5.625 -2.394531 5.550781 -2.644531 5.40625 -2.875 C 5.269531 -3.113281 5.070312 -3.300781 4.8125 -3.4375 C 4.5625 -3.582031 4.265625 -3.65625 3.921875 -3.65625 L 1.9375 -3.65625 Z M 1.9375 -4.5 L 3.75 -4.5 C 4.1875 -4.5 4.554688 -4.625 4.859375 -4.875 C 5.160156 -5.125 5.3125 -5.460938 5.3125 -5.890625 C 5.3125 -6.242188 5.1875 -6.539062 4.9375 -6.78125 C 4.695312 -7.03125 4.3125 -7.15625 3.78125 -7.15625 L 1.9375 -7.15625 Z M 1.9375 -4.5 "/></g></g></g><g fill="#ffffff" fill-opacity="1"><g transform="translate(155.329496, 245.037553)"><g><path d="M 7.734375 -4.015625 C 7.734375 -3.171875 7.582031 -2.4375 7.28125 -1.8125 C 6.976562 -1.195312 6.554688 -0.722656 6.015625 -0.390625 C 5.484375 -0.0546875 4.878906 0.109375 4.203125 0.109375 C 3.515625 0.109375 2.90625 -0.0546875 2.375 -0.390625 C 1.84375 -0.722656 1.421875 -1.195312 1.109375 -1.8125 C 0.804688 -2.4375 0.65625 -3.171875 0.65625 -4.015625 C 0.65625 -4.859375 0.804688 -5.585938 1.109375 -6.203125 C 1.421875 -6.816406 1.84375 -7.289062 2.375 -7.625 C 2.90625 -7.957031 3.515625 -8.125 4.203125 -8.125 C 4.878906 -8.125 5.484375 -7.957031 6.015625 -7.625 C 6.554688 -7.289062 6.976562 -6.816406 7.28125 -6.203125 C 7.582031 -5.585938 7.734375 -4.859375 7.734375 -4.015625 Z M 6.796875 -4.015625 C 6.796875 -4.703125 6.679688 -5.285156 6.453125 -5.765625 C 6.222656 -6.242188 5.910156 -6.601562 5.515625 -6.84375 C 5.117188 -7.09375 4.679688 -7.21875 4.203125 -7.21875 C 3.710938 -7.21875 3.269531 -7.09375 2.875 -6.84375 C 2.488281 -6.601562 2.175781 -6.242188 1.9375 -5.765625 C 1.707031 -5.285156 1.59375 -4.703125 1.59375 -4.015625 C 1.59375 -3.316406 1.707031 -2.726562 1.9375 -2.25 C 2.175781 -1.769531 2.488281 -1.40625 2.875 -1.15625 C 3.269531 -0.914062 3.710938 -0.796875 4.203125 -0.796875 C 4.679688 -0.796875 5.117188 -0.914062 5.515625 -1.15625 C 5.910156 -1.40625 6.222656 -1.769531 6.453125 -2.25 C 6.679688 -2.726562 6.796875 -3.316406 6.796875 -4.015625 Z M 6.796875 -4.015625 "/></g></g></g><g fill="#ffffff" fill-opacity="1"><g transform="translate(164.906976, 245.037553)"><g><path d="M 7.734375 -4.015625 C 7.734375 -3.171875 7.582031 -2.4375 7.28125 -1.8125 C 6.976562 -1.195312 6.554688 -0.722656 6.015625 -0.390625 C 5.484375 -0.0546875 4.878906 0.109375 4.203125 0.109375 C 3.515625 0.109375 2.90625 -0.0546875 2.375 -0.390625 C 1.84375 -0.722656 1.421875 -1.195312 1.109375 -1.8125 C 0.804688 -2.4375 0.65625 -3.171875 0.65625 -4.015625 C 0.65625 -4.859375 0.804688 -5.585938 1.109375 -6.203125 C 1.421875 -6.816406 1.84375 -7.289062 2.375 -7.625 C 2.90625 -7.957031 3.515625 -8.125 4.203125 -8.125 C 4.878906 -8.125 5.484375 -7.957031 6.015625 -7.625 C 6.554688 -7.289062 6.976562 -6.816406 7.28125 -6.203125 C 7.582031 -5.585938 7.734375 -4.859375 7.734375 -4.015625 Z M 6.796875 -4.015625 C 6.796875 -4.703125 6.679688 -5.285156 6.453125 -5.765625 C 6.222656 -6.242188 5.910156 -6.601562 5.515625 -6.84375 C 5.117188 -7.09375 4.679688 -7.21875 4.203125 -7.21875 C 3.710938 -7.21875 3.269531 -7.09375 2.875 -6.84375 C 2.488281 -6.601562 2.175781 -6.242188 1.9375 -5.765625 C 1.707031 -5.285156 1.59375 -4.703125 1.59375 -4.015625 C 1.59375 -3.316406 1.707031 -2.726562 1.9375 -2.25 C 2.175781 -1.769531 2.488281 -1.40625 2.875 -1.15625 C 3.269531 -0.914062 3.710938 -0.796875 4.203125 -0.796875 C 4.679688 -0.796875 5.117188 -0.914062 5.515625 -1.15625 C 5.910156 -1.40625 6.222656 -1.769531 6.453125 -2.25 C 6.679688 -2.726562 6.796875 -3.316406 6.796875 -4.015625 Z M 6.796875 -4.015625 "/></g></g></g><g fill="#ffffff" fill-opacity="1"><g transform="translate(174.484457, 245.037553)"><g><path d="M 0.96875 0 L 0.96875 -8.015625 L 1.9375 -8.015625 L 1.9375 -4.046875 L 2.03125 -4.046875 L 5.640625 -8.015625 L 6.90625 -8.015625 L 3.546875 -4.40625 L 6.90625 0 L 5.734375 0 L 2.953125 -3.734375 L 1.9375 -2.59375 L 1.9375 0 Z M 0.96875 0 "/></g></g></g><g fill="#ffffff" fill-opacity="1"><g transform="translate(182.857126, 245.037553)"><g/></g></g><g fill="#ffffff" fill-opacity="1"><g transform="translate(187.145948, 245.037553)"><g><path d="M 5.359375 -6.015625 C 5.304688 -6.410156 5.113281 -6.71875 4.78125 -6.9375 C 4.445312 -7.15625 4.039062 -7.265625 3.5625 -7.265625 C 3.03125 -7.265625 2.597656 -7.140625 2.265625 -6.890625 C 1.941406 -6.640625 1.78125 -6.320312 1.78125 -5.9375 C 1.78125 -5.65625 1.867188 -5.425781 2.046875 -5.25 C 2.222656 -5.070312 2.429688 -4.929688 2.671875 -4.828125 C 2.921875 -4.734375 3.144531 -4.660156 3.34375 -4.609375 L 4.15625 -4.390625 C 4.363281 -4.335938 4.59375 -4.257812 4.84375 -4.15625 C 5.101562 -4.0625 5.351562 -3.929688 5.59375 -3.765625 C 5.832031 -3.597656 6.023438 -3.382812 6.171875 -3.125 C 6.328125 -2.875 6.40625 -2.554688 6.40625 -2.171875 C 6.40625 -1.742188 6.289062 -1.351562 6.0625 -1 C 5.84375 -0.65625 5.515625 -0.378906 5.078125 -0.171875 C 4.648438 0.0351562 4.128906 0.140625 3.515625 0.140625 C 2.648438 0.140625 1.960938 -0.0625 1.453125 -0.46875 C 0.953125 -0.875 0.675781 -1.40625 0.625 -2.0625 L 1.625 -2.0625 C 1.65625 -1.757812 1.757812 -1.507812 1.9375 -1.3125 C 2.113281 -1.113281 2.335938 -0.96875 2.609375 -0.875 C 2.890625 -0.78125 3.191406 -0.734375 3.515625 -0.734375 C 3.878906 -0.734375 4.207031 -0.789062 4.5 -0.90625 C 4.800781 -1.03125 5.035156 -1.203125 5.203125 -1.421875 C 5.378906 -1.640625 5.46875 -1.894531 5.46875 -2.1875 C 5.46875 -2.457031 5.390625 -2.675781 5.234375 -2.84375 C 5.085938 -3.007812 4.894531 -3.144531 4.65625 -3.25 C 4.414062 -3.351562 4.15625 -3.445312 3.875 -3.53125 L 2.890625 -3.8125 C 2.253906 -3.988281 1.753906 -4.242188 1.390625 -4.578125 C 1.023438 -4.910156 0.84375 -5.347656 0.84375 -5.890625 C 0.84375 -6.335938 0.960938 -6.726562 1.203125 -7.0625 C 1.453125 -7.40625 1.785156 -7.664062 2.203125 -7.84375 C 2.617188 -8.03125 3.082031 -8.125 3.59375 -8.125 C 4.101562 -8.125 4.5625 -8.03125 4.96875 -7.84375 C 5.375 -7.664062 5.691406 -7.414062 5.921875 -7.09375 C 6.160156 -6.78125 6.285156 -6.421875 6.296875 -6.015625 Z M 5.359375 -6.015625 "/></g></g></g><g fill="#ffffff" fill-opacity="1"><g transform="translate(195.362144, 245.037553)"><g><path d="M 0.53125 -7.15625 L 0.53125 -8.015625 L 6.546875 -8.015625 L 6.546875 -7.15625 L 4.03125 -7.15625 L 4.03125 0 L 3.0625 0 L 3.0625 -7.15625 Z M 0.53125 -7.15625 "/></g></g></g><g fill="#ffffff" fill-opacity="1"><g transform="translate(203.625282, 245.037553)"><g><path d="M 7.734375 -4.015625 C 7.734375 -3.171875 7.582031 -2.4375 7.28125 -1.8125 C 6.976562 -1.195312 6.554688 -0.722656 6.015625 -0.390625 C 5.484375 -0.0546875 4.878906 0.109375 4.203125 0.109375 C 3.515625 0.109375 2.90625 -0.0546875 2.375 -0.390625 C 1.84375 -0.722656 1.421875 -1.195312 1.109375 -1.8125 C 0.804688 -2.4375 0.65625 -3.171875 0.65625 -4.015625 C 0.65625 -4.859375 0.804688 -5.585938 1.109375 -6.203125 C 1.421875 -6.816406 1.84375 -7.289062 2.375 -7.625 C 2.90625 -7.957031 3.515625 -8.125 4.203125 -8.125 C 4.878906 -8.125 5.484375 -7.957031 6.015625 -7.625 C 6.554688 -7.289062 6.976562 -6.816406 7.28125 -6.203125 C 7.582031 -5.585938 7.734375 -4.859375 7.734375 -4.015625 Z M 6.796875 -4.015625 C 6.796875 -4.703125 6.679688 -5.285156 6.453125 -5.765625 C 6.222656 -6.242188 5.910156 -6.601562 5.515625 -6.84375 C 5.117188 -7.09375 4.679688 -7.21875 4.203125 -7.21875 C 3.710938 -7.21875 3.269531 -7.09375 2.875 -6.84375 C 2.488281 -6.601562 2.175781 -6.242188 1.9375 -5.765625 C 1.707031 -5.285156 1.59375 -4.703125 1.59375 -4.015625 C 1.59375 -3.316406 1.707031 -2.726562 1.9375 -2.25 C 2.175781 -1.769531 2.488281 -1.40625 2.875 -1.15625 C 3.269531 -0.914062 3.710938 -0.796875 4.203125 -0.796875 C 4.679688 -0.796875 5.117188 -0.914062 5.515625 -1.15625 C 5.910156 -1.40625 6.222656 -1.769531 6.453125 -2.25 C 6.679688 -2.726562 6.796875 -3.316406 6.796875 -4.015625 Z M 6.796875 -4.015625 "/></g></g></g><g fill="#ffffff" fill-opacity="1"><g transform="translate(213.202761, 245.037553)"><g><path d="M 0.96875 0 L 0.96875 -8.015625 L 3.6875 -8.015625 C 4.3125 -8.015625 4.820312 -7.910156 5.21875 -7.703125 C 5.625 -7.492188 5.921875 -7.203125 6.109375 -6.828125 C 6.304688 -6.453125 6.40625 -6.03125 6.40625 -5.5625 C 6.40625 -5.03125 6.28125 -4.566406 6.03125 -4.171875 C 5.789062 -3.773438 5.414062 -3.488281 4.90625 -3.3125 L 6.71875 0 L 5.59375 0 L 3.90625 -3.140625 C 3.832031 -3.140625 3.765625 -3.140625 3.703125 -3.140625 L 1.9375 -3.140625 L 1.9375 0 Z M 1.9375 -4.015625 L 3.671875 -4.015625 C 4.304688 -4.015625 4.757812 -4.148438 5.03125 -4.421875 C 5.3125 -4.703125 5.453125 -5.082031 5.453125 -5.5625 C 5.453125 -6.039062 5.3125 -6.425781 5.03125 -6.71875 C 4.757812 -7.007812 4.300781 -7.15625 3.65625 -7.15625 L 1.9375 -7.15625 Z M 1.9375 -4.015625 "/></g></g></g><g fill="#ffffff" fill-opacity="1"><g transform="translate(221.43461, 245.037553)"><g><path d="M 0.96875 0 L 0.96875 -8.015625 L 5.8125 -8.015625 L 5.8125 -7.15625 L 1.9375 -7.15625 L 1.9375 -4.453125 L 5.5625 -4.453125 L 5.5625 -3.59375 L 1.9375 -3.59375 L 1.9375 -0.859375 L 5.875 -0.859375 L 5.875 0 Z M 0.96875 0 "/></g></g></g><g fill="#000000" fill-opacity="1"><g transform="translate(155.682958, 170.090979)"><g><path d="M 18.203125 -7.3125 L 16.6875 -7.109375 C 16.664062 -6.328125 16.648438 -5.546875 16.640625 -4.765625 C 16.628906 -3.992188 16.625 -3.207031 16.625 -2.40625 L 16.625 -1.203125 C 15.632812 -0.660156 14.65625 -0.253906 13.6875 0.015625 C 12.71875 0.285156 11.675781 0.421875 10.5625 0.421875 C 9.082031 0.421875 7.742188 0.179688 6.546875 -0.296875 C 5.359375 -0.785156 4.335938 -1.453125 3.484375 -2.296875 C 2.640625 -3.148438 1.988281 -4.160156 1.53125 -5.328125 C 1.070312 -6.492188 0.84375 -7.769531 0.84375 -9.15625 C 0.84375 -10.539062 1.070312 -11.816406 1.53125 -12.984375 C 2 -14.160156 2.664062 -15.171875 3.53125 -16.015625 C 4.40625 -16.867188 5.457031 -17.539062 6.6875 -18.03125 C 7.925781 -18.519531 9.3125 -18.765625 10.84375 -18.765625 C 11.738281 -18.765625 12.632812 -18.664062 13.53125 -18.46875 C 14.425781 -18.269531 15.367188 -17.925781 16.359375 -17.4375 L 16.46875 -13.46875 L 14.21875 -13.46875 L 13.71875 -16.578125 C 12.84375 -17.003906 11.945312 -17.21875 11.03125 -17.21875 C 9.21875 -17.21875 7.78125 -16.515625 6.71875 -15.109375 C 5.65625 -13.710938 5.125 -11.726562 5.125 -9.15625 C 5.125 -7.882812 5.273438 -6.75 5.578125 -5.75 C 5.890625 -4.75 6.3125 -3.90625 6.84375 -3.21875 C 7.375 -2.53125 8.003906 -2.007812 8.734375 -1.65625 C 9.460938 -1.300781 10.253906 -1.125 11.109375 -1.125 C 11.648438 -1.125 12.144531 -1.1875 12.59375 -1.3125 L 12.59375 -2.40625 C 12.59375 -3.1875 12.585938 -3.957031 12.578125 -4.71875 C 12.578125 -5.488281 12.566406 -6.269531 12.546875 -7.0625 L 10.46875 -7.3125 L 10.46875 -8.703125 L 18.203125 -8.703125 Z M 18.203125 -7.3125 "/></g></g></g><g fill="#000000" fill-opacity="1"><g transform="translate(198.773545, 170.090979)"><g><path d="M 16.4375 -5.15625 L 16.328125 -0.890625 C 15.535156 -0.460938 14.664062 -0.140625 13.71875 0.078125 C 12.769531 0.304688 11.765625 0.421875 10.703125 0.421875 C 9.265625 0.421875 7.941406 0.222656 6.734375 -0.171875 C 5.523438 -0.578125 4.484375 -1.179688 3.609375 -1.984375 C 2.734375 -2.785156 2.050781 -3.785156 1.5625 -4.984375 C 1.082031 -6.179688 0.84375 -7.570312 0.84375 -9.15625 C 0.84375 -10.738281 1.097656 -12.128906 1.609375 -13.328125 C 2.117188 -14.535156 2.820312 -15.539062 3.71875 -16.34375 C 4.613281 -17.15625 5.679688 -17.757812 6.921875 -18.15625 C 8.171875 -18.5625 9.519531 -18.765625 10.96875 -18.765625 C 11.863281 -18.765625 12.71875 -18.664062 13.53125 -18.46875 C 14.34375 -18.269531 15.179688 -17.925781 16.046875 -17.4375 L 16.15625 -13.1875 L 13.9375 -13.1875 L 13.390625 -16.71875 C 12.597656 -17.050781 11.800781 -17.21875 11 -17.21875 C 10.175781 -17.21875 9.40625 -17.046875 8.6875 -16.703125 C 7.96875 -16.359375 7.34375 -15.84375 6.8125 -15.15625 C 6.28125 -14.476562 5.863281 -13.632812 5.5625 -12.625 C 5.269531 -11.613281 5.125 -10.457031 5.125 -9.15625 C 5.125 -7.851562 5.269531 -6.703125 5.5625 -5.703125 C 5.863281 -4.703125 6.28125 -3.859375 6.8125 -3.171875 C 7.34375 -2.492188 7.96875 -1.984375 8.6875 -1.640625 C 9.40625 -1.296875 10.175781 -1.125 11 -1.125 C 11.875 -1.125 12.757812 -1.289062 13.65625 -1.625 L 14.203125 -5.15625 Z M 16.4375 -5.15625 "/></g></g></g><path stroke-linecap="butt" transform="matrix(0.744081, 0, 0, 0.75, 97.315261, 240.162553)" fill="none" stroke-linejoin="miter" d="M 0.00153981 2.502013 L 55.444294 2.502013 " stroke="#ffffff" stroke-width="5" stroke-opacity="1" stroke-miterlimit="4"/><path stroke-linecap="butt" transform="matrix(0.744081, 0, 0, 0.75, 236.101645, 240.162553)" fill="none" stroke-linejoin="miter" d="M -0.00011087 2.502013 L 55.442643 2.502013 " stroke="#ffffff" stroke-width="5" stroke-opacity="1" stroke-miterlimit="4"/></svg>