<svg xmlns="http://www.w3.org/2000/svg" xmlns:xlink="http://www.w3.org/1999/xlink" width="500" zoomAndPan="magnify" viewBox="0 0 375 374.999991" height="500" preserveAspectRatio="xMidYMid meet" version="1.0"><defs><g/><clipPath id="182b74be71"><path d="M 193 136 L 284.667969 136 L 284.667969 201.625 L 193 201.625 Z M 193 136 " clip-rule="nonzero"/></clipPath><clipPath id="7d8dc3a8d9"><path d="M 90.417969 136 L 182 136 L 182 201.625 L 90.417969 201.625 Z M 90.417969 136 " clip-rule="nonzero"/></clipPath><clipPath id="9e9cdd982b"><path d="M 184 127 L 188 127 L 188 201.625 L 184 201.625 Z M 184 127 " clip-rule="nonzero"/></clipPath><clipPath id="4431fba3d8"><path d="M 187 127 L 191 127 L 191 201.625 L 187 201.625 Z M 187 127 " clip-rule="nonzero"/></clipPath></defs><g clip-path="url(#182b74be71)"><path fill="#ffffff" d="M 265.472656 136.234375 C 260.351562 144.542969 244.828125 169.996094 234.851562 189.105469 L 234.125 190.5 C 234.125 190.5 202.734375 190.78125 193.246094 196.78125 L 193.246094 201.621094 C 203.363281 195.609375 240.285156 196.019531 240.285156 196.019531 C 257.003906 172.628906 284.652344 140.234375 284.652344 140.234375 C 278.128906 138.078125 271.679688 136.828125 265.472656 136.234375 " fill-opacity="1" fill-rule="nonzero"/></g><path fill="#ffffff" d="M 258.355469 129.699219 C 252.507812 140.902344 240.734375 163.808594 232.832031 181.53125 L 232.140625 183.089844 C 232.140625 183.089844 198.933594 181.84375 193.246094 189.882812 L 193.246094 193.550781 C 208.457031 186.394531 232.625 187.945312 232.625 187.945312 C 244.835938 164.558594 265.039062 132.164062 265.039062 132.164062 C 262.792969 131.148438 260.5625 130.339844 258.355469 129.699219 " fill-opacity="1" fill-rule="nonzero"/><path fill="#ffffff" d="M 193.246094 127.210938 L 193.246094 186.394531 C 199.894531 180.058594 230.542969 180.488281 230.542969 180.488281 C 241.53125 155.847656 259.707031 121.71875 259.707031 121.71875 C 234.984375 108.621094 193.246094 127.210938 193.246094 127.210938 " fill-opacity="1" fill-rule="nonzero"/><g clip-path="url(#7d8dc3a8d9)"><path fill="#ffffff" d="M 109.613281 136.234375 C 114.734375 144.539062 130.257812 169.996094 140.234375 189.101562 L 140.960938 190.5 C 140.960938 190.5 172.351562 190.78125 181.839844 196.78125 L 181.839844 201.617188 C 171.726562 195.605469 134.800781 196.015625 134.800781 196.015625 C 118.085938 172.628906 90.433594 140.234375 90.433594 140.234375 C 96.957031 138.078125 103.40625 136.828125 109.613281 136.234375 " fill-opacity="1" fill-rule="nonzero"/></g><path fill="#ffffff" d="M 116.730469 129.699219 C 122.578125 140.902344 134.351562 163.808594 142.253906 181.53125 L 142.945312 183.089844 C 142.945312 183.089844 176.15625 181.84375 181.839844 189.882812 L 181.839844 193.550781 C 166.628906 186.394531 142.460938 187.945312 142.460938 187.945312 C 130.25 164.558594 110.050781 132.164062 110.050781 132.164062 C 112.292969 131.148438 114.523438 130.339844 116.730469 129.699219 " fill-opacity="1" fill-rule="nonzero"/><path fill="#ffffff" d="M 181.839844 127.210938 L 181.839844 186.394531 C 175.191406 180.058594 144.542969 180.488281 144.542969 180.488281 C 133.558594 155.847656 115.378906 121.71875 115.378906 121.71875 C 140.101562 108.621094 181.839844 127.210938 181.839844 127.210938 " fill-opacity="1" fill-rule="nonzero"/><g clip-path="url(#9e9cdd982b)"><path fill="#ffffff" d="M 187.542969 127.210938 C 185.847656 127.210938 184.472656 128.578125 184.472656 130.269531 L 184.472656 198.558594 C 184.472656 200.25 185.847656 201.617188 187.542969 201.617188 L 187.542969 127.210938 " fill-opacity="1" fill-rule="nonzero"/></g><g clip-path="url(#4431fba3d8)"><path fill="#ffffff" d="M 187.542969 127.210938 L 187.542969 201.617188 C 189.238281 201.617188 190.613281 200.25 190.613281 198.558594 L 190.613281 130.269531 C 190.613281 128.578125 189.238281 127.210938 187.542969 127.210938 " fill-opacity="1" fill-rule="nonzero"/></g><g fill="#ffffff" fill-opacity="1"><g transform="translate(-0.850591, 237.4547)"><g><path d="M 23.546875 -9.453125 L 21.59375 -9.203125 C 21.570312 -8.191406 21.550781 -7.179688 21.53125 -6.171875 C 21.519531 -5.171875 21.515625 -4.148438 21.515625 -3.109375 L 21.515625 -1.5625 C 20.242188 -0.851562 18.976562 -0.328125 17.71875 0.015625 C 16.457031 0.367188 15.101562 0.546875 13.65625 0.546875 C 11.75 0.546875 10.019531 0.234375 8.46875 -0.390625 C 6.925781 -1.023438 5.601562 -1.890625 4.5 -2.984375 C 3.40625 -4.085938 2.5625 -5.394531 1.96875 -6.90625 C 1.382812 -8.414062 1.09375 -10.0625 1.09375 -11.84375 C 1.09375 -13.632812 1.394531 -15.289062 2 -16.8125 C 2.601562 -18.332031 3.460938 -19.640625 4.578125 -20.734375 C 5.703125 -21.835938 7.0625 -22.703125 8.65625 -23.328125 C 10.25 -23.960938 12.035156 -24.28125 14.015625 -24.28125 C 15.179688 -24.28125 16.34375 -24.148438 17.5 -23.890625 C 18.65625 -23.640625 19.875 -23.203125 21.15625 -22.578125 L 21.3125 -17.421875 L 18.40625 -17.421875 L 17.75 -21.453125 C 16.613281 -22.003906 15.457031 -22.28125 14.28125 -22.28125 C 11.9375 -22.28125 10.070312 -21.375 8.6875 -19.5625 C 7.3125 -17.75 6.625 -15.175781 6.625 -11.84375 C 6.625 -10.207031 6.820312 -8.738281 7.21875 -7.4375 C 7.625 -6.144531 8.171875 -5.050781 8.859375 -4.15625 C 9.546875 -3.269531 10.359375 -2.597656 11.296875 -2.140625 C 12.242188 -1.679688 13.273438 -1.453125 14.390625 -1.453125 C 15.085938 -1.453125 15.726562 -1.535156 16.3125 -1.703125 L 16.3125 -3.109375 C 16.3125 -4.128906 16.300781 -5.132812 16.28125 -6.125 C 16.269531 -7.113281 16.253906 -8.113281 16.234375 -9.125 L 13.546875 -9.453125 L 13.546875 -11.265625 L 23.546875 -11.265625 Z M 23.546875 -9.453125 "/></g></g></g><g fill="#ffffff" fill-opacity="1"><g transform="translate(23.571339, 237.4547)"><g><path d="M 20.296875 -7.03125 L 19.921875 0 L 1.15625 0 L 1.15625 -1.8125 L 4.09375 -2.140625 C 4.144531 -3.640625 4.171875 -5.140625 4.171875 -6.640625 C 4.171875 -8.148438 4.171875 -9.679688 4.171875 -11.234375 L 4.171875 -12.5 C 4.171875 -14.019531 4.171875 -15.535156 4.171875 -17.046875 C 4.171875 -18.554688 4.144531 -20.070312 4.09375 -21.59375 L 1.15625 -21.921875 L 1.15625 -23.734375 L 12.640625 -23.734375 L 12.640625 -21.921875 L 9.53125 -21.59375 C 9.476562 -20.070312 9.453125 -18.5625 9.453125 -17.0625 C 9.453125 -15.5625 9.453125 -14.039062 9.453125 -12.5 L 9.453125 -11.234375 C 9.453125 -9.679688 9.453125 -8.140625 9.453125 -6.609375 C 9.453125 -5.078125 9.476562 -3.539062 9.53125 -2 L 16.421875 -2 L 17.421875 -7.03125 Z M 20.296875 -7.03125 "/></g></g></g><g fill="#ffffff" fill-opacity="1"><g transform="translate(44.587245, 237.4547)"><g><path d="M 13.953125 -9.390625 L 11.046875 -17.46875 L 8.046875 -9.390625 Z M 24.234375 -1.78125 L 24.234375 0 L 13.59375 0 L 13.59375 -1.78125 L 16.5625 -2.140625 L 14.671875 -7.390625 L 7.3125 -7.390625 L 5.40625 -2.25 L 8.328125 -1.8125 L 8.328125 0 L 0.1875 0 L 0.1875 -1.8125 L 3.40625 -2.28125 L 11.453125 -23.734375 L 13.625 -23.734375 L 21.84375 -2.0625 Z M 24.234375 -1.78125 "/></g></g></g><g fill="#ffffff" fill-opacity="1"><g transform="translate(68.972944, 237.4547)"><g><path d="M 10.828125 -2 C 11.960938 -2 13 -2.210938 13.9375 -2.640625 C 14.882812 -3.078125 15.691406 -3.710938 16.359375 -4.546875 C 17.023438 -5.378906 17.535156 -6.410156 17.890625 -7.640625 C 18.253906 -8.878906 18.4375 -10.296875 18.4375 -11.890625 C 18.4375 -13.484375 18.253906 -14.894531 17.890625 -16.125 C 17.535156 -17.351562 17.019531 -18.382812 16.34375 -19.21875 C 15.664062 -20.050781 14.859375 -20.675781 13.921875 -21.09375 C 12.992188 -21.519531 11.953125 -21.734375 10.796875 -21.734375 L 9.53125 -21.734375 C 9.476562 -20.210938 9.453125 -18.6875 9.453125 -17.15625 C 9.453125 -15.625 9.453125 -14.070312 9.453125 -12.5 L 9.453125 -11.59375 C 9.453125 -9.90625 9.453125 -8.269531 9.453125 -6.6875 C 9.453125 -5.101562 9.476562 -3.539062 9.53125 -2 Z M 12.109375 -23.734375 C 13.867188 -23.734375 15.476562 -23.476562 16.9375 -22.96875 C 18.394531 -22.46875 19.648438 -21.710938 20.703125 -20.703125 C 21.753906 -19.703125 22.5625 -18.476562 23.125 -17.03125 C 23.695312 -15.582031 23.984375 -13.914062 23.984375 -12.03125 C 23.984375 -10.070312 23.671875 -8.34375 23.046875 -6.84375 C 22.421875 -5.351562 21.546875 -4.097656 20.421875 -3.078125 C 19.296875 -2.066406 17.957031 -1.300781 16.40625 -0.78125 C 14.863281 -0.257812 13.1875 0 11.375 0 L 1.15625 0 L 1.15625 -1.8125 L 4.09375 -2.140625 C 4.144531 -3.640625 4.171875 -5.164062 4.171875 -6.71875 C 4.171875 -8.28125 4.171875 -9.90625 4.171875 -11.59375 L 4.171875 -12.5 C 4.171875 -14.019531 4.171875 -15.535156 4.171875 -17.046875 C 4.171875 -18.554688 4.144531 -20.070312 4.09375 -21.59375 L 1.15625 -21.921875 L 1.15625 -23.734375 Z M 12.109375 -23.734375 "/></g></g></g><g fill="#ffffff" fill-opacity="1"><g transform="translate(94.047096, 237.4547)"><g><path d="M 13.625 -10.609375 L 13.625 -8.15625 C 13.625 -7.519531 13.625 -6.941406 13.625 -6.421875 C 13.625 -5.910156 13.625 -5.425781 13.625 -4.96875 C 13.625 -4.507812 13.628906 -4.054688 13.640625 -3.609375 C 13.648438 -3.160156 13.65625 -2.679688 13.65625 -2.171875 L 17 -1.8125 L 17 0 L 4.96875 0 L 4.96875 -1.8125 L 8.296875 -2.171875 C 8.316406 -3.140625 8.328125 -4.054688 8.328125 -4.921875 C 8.328125 -5.796875 8.328125 -6.875 8.328125 -8.15625 L 8.328125 -10.21875 L 2.421875 -21.671875 L 0.078125 -21.921875 L 0.078125 -23.734375 L 11.203125 -23.734375 L 11.203125 -21.921875 L 8.328125 -21.59375 L 12.53125 -12.25 L 17.109375 -21.515625 L 14.203125 -21.921875 L 14.203125 -23.734375 L 21.890625 -23.734375 L 21.890625 -21.921875 L 19.203125 -21.453125 Z M 13.625 -10.609375 "/></g></g></g><g fill="#ffffff" fill-opacity="1"><g transform="translate(116.005091, 237.4547)"><g><path d="M 11.625 -14.09375 C 12.9375 -13.632812 14.023438 -13.132812 14.890625 -12.59375 C 15.765625 -12.050781 16.457031 -11.46875 16.96875 -10.84375 C 17.488281 -10.226562 17.863281 -9.585938 18.09375 -8.921875 C 18.320312 -8.265625 18.4375 -7.585938 18.4375 -6.890625 C 18.4375 -5.828125 18.207031 -4.847656 17.75 -3.953125 C 17.289062 -3.054688 16.644531 -2.269531 15.8125 -1.59375 C 14.976562 -0.914062 13.972656 -0.390625 12.796875 -0.015625 C 11.628906 0.359375 10.320312 0.546875 8.875 0.546875 C 7.5 0.546875 6.132812 0.378906 4.78125 0.046875 C 3.425781 -0.273438 2.253906 -0.738281 1.265625 -1.34375 L 1.484375 -6.671875 L 4.5 -6.671875 L 5.21875 -2.3125 C 5.769531 -2.050781 6.335938 -1.84375 6.921875 -1.6875 C 7.503906 -1.53125 8.144531 -1.453125 8.84375 -1.453125 C 10.363281 -1.453125 11.546875 -1.800781 12.390625 -2.5 C 13.234375 -3.195312 13.65625 -4.128906 13.65625 -5.296875 C 13.65625 -6.210938 13.359375 -6.9375 12.765625 -7.46875 C 12.179688 -8 11.234375 -8.503906 9.921875 -8.984375 L 8.15625 -9.640625 C 6 -10.410156 4.320312 -11.429688 3.125 -12.703125 C 1.9375 -13.972656 1.34375 -15.507812 1.34375 -17.3125 C 1.34375 -18.332031 1.539062 -19.265625 1.9375 -20.109375 C 2.332031 -20.953125 2.910156 -21.679688 3.671875 -22.296875 C 4.429688 -22.910156 5.347656 -23.394531 6.421875 -23.75 C 7.503906 -24.101562 8.734375 -24.28125 10.109375 -24.28125 C 11.441406 -24.28125 12.691406 -24.113281 13.859375 -23.78125 C 15.023438 -23.457031 16.046875 -22.992188 16.921875 -22.390625 L 16.671875 -17.421875 L 13.703125 -17.421875 L 12.96875 -21.703125 C 12.488281 -21.898438 12.019531 -22.046875 11.5625 -22.140625 C 11.101562 -22.234375 10.628906 -22.28125 10.140625 -22.28125 C 8.929688 -22.28125 7.914062 -21.96875 7.09375 -21.34375 C 6.28125 -20.71875 5.875 -19.820312 5.875 -18.65625 C 5.875 -17.644531 6.210938 -16.847656 6.890625 -16.265625 C 7.566406 -15.691406 8.519531 -15.1875 9.75 -14.75 Z M 11.625 -14.09375 "/></g></g></g><g fill="#ffffff" fill-opacity="1"><g transform="translate(135.35421, 237.4547)"><g><path d="M 3.953125 -26.53125 C 4.722656 -26.53125 5.332031 -26.296875 5.78125 -25.828125 C 6.226562 -25.367188 6.453125 -24.671875 6.453125 -23.734375 C 6.453125 -23.328125 6.414062 -22.851562 6.34375 -22.3125 C 6.269531 -21.78125 6.175781 -21.25 6.0625 -20.71875 C 5.957031 -20.1875 5.847656 -19.691406 5.734375 -19.234375 C 5.628906 -18.773438 5.550781 -18.414062 5.5 -18.15625 L 4.8125 -14.671875 L 3.078125 -14.671875 L 2.390625 -18.15625 C 2.335938 -18.394531 2.265625 -18.75 2.171875 -19.21875 C 2.078125 -19.6875 1.972656 -20.1875 1.859375 -20.71875 C 1.753906 -21.25 1.660156 -21.78125 1.578125 -22.3125 C 1.492188 -22.851562 1.453125 -23.328125 1.453125 -23.734375 C 1.453125 -24.671875 1.675781 -25.367188 2.125 -25.828125 C 2.570312 -26.296875 3.179688 -26.53125 3.953125 -26.53125 Z M 3.953125 -26.53125 "/></g></g></g><g fill="#ffffff" fill-opacity="1"><g transform="translate(143.253288, 237.4547)"><g/></g></g><g fill="#ffffff" fill-opacity="1"><g transform="translate(151.224841, 237.4547)"><g><path d="M 21.265625 -6.671875 L 21.125 -1.15625 C 20.113281 -0.601562 18.988281 -0.179688 17.75 0.109375 C 16.519531 0.398438 15.21875 0.546875 13.84375 0.546875 C 11.976562 0.546875 10.265625 0.285156 8.703125 -0.234375 C 7.148438 -0.753906 5.804688 -1.53125 4.671875 -2.5625 C 3.535156 -3.601562 2.65625 -4.894531 2.03125 -6.4375 C 1.40625 -7.988281 1.09375 -9.789062 1.09375 -11.84375 C 1.09375 -13.894531 1.421875 -15.703125 2.078125 -17.265625 C 2.742188 -18.828125 3.65625 -20.125 4.8125 -21.15625 C 5.976562 -22.195312 7.363281 -22.976562 8.96875 -23.5 C 10.570312 -24.019531 12.316406 -24.28125 14.203125 -24.28125 C 15.359375 -24.28125 16.460938 -24.148438 17.515625 -23.890625 C 18.566406 -23.640625 19.648438 -23.203125 20.765625 -22.578125 L 20.90625 -17.0625 L 18.046875 -17.0625 L 17.3125 -21.625 C 16.300781 -22.0625 15.273438 -22.28125 14.234375 -22.28125 C 13.171875 -22.28125 12.175781 -22.054688 11.25 -21.609375 C 10.320312 -21.160156 9.515625 -20.492188 8.828125 -19.609375 C 8.140625 -18.734375 7.597656 -17.644531 7.203125 -16.34375 C 6.816406 -15.039062 6.625 -13.539062 6.625 -11.84375 C 6.625 -10.15625 6.816406 -8.664062 7.203125 -7.375 C 7.597656 -6.082031 8.140625 -4.992188 8.828125 -4.109375 C 9.515625 -3.234375 10.320312 -2.570312 11.25 -2.125 C 12.175781 -1.675781 13.171875 -1.453125 14.234375 -1.453125 C 15.367188 -1.453125 16.519531 -1.671875 17.6875 -2.109375 L 18.375 -6.671875 Z M 21.265625 -6.671875 "/></g></g></g><g fill="#ffffff" fill-opacity="1"><g transform="translate(173.762582, 237.4547)"><g><path d="M 6.703125 -11.84375 C 6.703125 -10.539062 6.8125 -9.265625 7.03125 -8.015625 C 7.25 -6.773438 7.601562 -5.664062 8.09375 -4.6875 C 8.59375 -3.707031 9.226562 -2.921875 10 -2.328125 C 10.769531 -1.742188 11.710938 -1.453125 12.828125 -1.453125 C 13.941406 -1.453125 14.882812 -1.742188 15.65625 -2.328125 C 16.425781 -2.921875 17.050781 -3.707031 17.53125 -4.6875 C 18.019531 -5.664062 18.378906 -6.773438 18.609375 -8.015625 C 18.835938 -9.265625 18.953125 -10.539062 18.953125 -11.84375 C 18.953125 -13.15625 18.835938 -14.4375 18.609375 -15.6875 C 18.378906 -16.945312 18.019531 -18.066406 17.53125 -19.046875 C 17.050781 -20.023438 16.425781 -20.804688 15.65625 -21.390625 C 14.882812 -21.984375 13.941406 -22.28125 12.828125 -22.28125 C 11.710938 -22.28125 10.769531 -21.984375 10 -21.390625 C 9.226562 -20.804688 8.59375 -20.023438 8.09375 -19.046875 C 7.601562 -18.066406 7.25 -16.945312 7.03125 -15.6875 C 6.8125 -14.4375 6.703125 -13.15625 6.703125 -11.84375 Z M 12.828125 -24.28125 C 14.253906 -24.28125 15.660156 -24.019531 17.046875 -23.5 C 18.429688 -22.976562 19.679688 -22.203125 20.796875 -21.171875 C 21.910156 -20.148438 22.804688 -18.859375 23.484375 -17.296875 C 24.160156 -15.742188 24.5 -13.925781 24.5 -11.84375 C 24.5 -9.769531 24.160156 -7.957031 23.484375 -6.40625 C 22.804688 -4.863281 21.914062 -3.578125 20.8125 -2.546875 C 19.71875 -1.523438 18.46875 -0.753906 17.0625 -0.234375 C 15.664062 0.285156 14.253906 0.546875 12.828125 0.546875 C 11.398438 0.546875 9.984375 0.285156 8.578125 -0.234375 C 7.179688 -0.753906 5.929688 -1.523438 4.828125 -2.546875 C 3.734375 -3.578125 2.847656 -4.863281 2.171875 -6.40625 C 1.492188 -7.957031 1.15625 -9.769531 1.15625 -11.84375 C 1.15625 -13.925781 1.492188 -15.742188 2.171875 -17.296875 C 2.847656 -18.859375 3.738281 -20.148438 4.84375 -21.171875 C 5.957031 -22.203125 7.207031 -22.976562 8.59375 -23.5 C 9.988281 -24.019531 11.398438 -24.28125 12.828125 -24.28125 Z M 12.828125 -24.28125 "/></g></g></g><g fill="#ffffff" fill-opacity="1"><g transform="translate(199.416469, 237.4547)"><g><path d="M 20.296875 -7.03125 L 19.921875 0 L 1.15625 0 L 1.15625 -1.8125 L 4.09375 -2.140625 C 4.144531 -3.640625 4.171875 -5.140625 4.171875 -6.640625 C 4.171875 -8.148438 4.171875 -9.679688 4.171875 -11.234375 L 4.171875 -12.5 C 4.171875 -14.019531 4.171875 -15.535156 4.171875 -17.046875 C 4.171875 -18.554688 4.144531 -20.070312 4.09375 -21.59375 L 1.15625 -21.921875 L 1.15625 -23.734375 L 12.640625 -23.734375 L 12.640625 -21.921875 L 9.53125 -21.59375 C 9.476562 -20.070312 9.453125 -18.5625 9.453125 -17.0625 C 9.453125 -15.5625 9.453125 -14.039062 9.453125 -12.5 L 9.453125 -11.234375 C 9.453125 -9.679688 9.453125 -8.140625 9.453125 -6.609375 C 9.453125 -5.078125 9.476562 -3.539062 9.53125 -2 L 16.421875 -2 L 17.421875 -7.03125 Z M 20.296875 -7.03125 "/></g></g></g><g fill="#ffffff" fill-opacity="1"><g transform="translate(220.432375, 237.4547)"><g><path d="M 20.296875 -7.03125 L 19.921875 0 L 1.15625 0 L 1.15625 -1.8125 L 4.09375 -2.140625 C 4.144531 -3.640625 4.171875 -5.140625 4.171875 -6.640625 C 4.171875 -8.148438 4.171875 -9.679688 4.171875 -11.234375 L 4.171875 -12.5 C 4.171875 -14.019531 4.171875 -15.535156 4.171875 -17.046875 C 4.171875 -18.554688 4.144531 -20.070312 4.09375 -21.59375 L 1.15625 -21.921875 L 1.15625 -23.734375 L 12.640625 -23.734375 L 12.640625 -21.921875 L 9.53125 -21.59375 C 9.476562 -20.070312 9.453125 -18.5625 9.453125 -17.0625 C 9.453125 -15.5625 9.453125 -14.039062 9.453125 -12.5 L 9.453125 -11.234375 C 9.453125 -9.679688 9.453125 -8.140625 9.453125 -6.609375 C 9.453125 -5.078125 9.476562 -3.539062 9.53125 -2 L 16.421875 -2 L 17.421875 -7.03125 Z M 20.296875 -7.03125 "/></g></g></g><g fill="#ffffff" fill-opacity="1"><g transform="translate(241.448282, 237.4547)"><g><path d="M 20.765625 -6.3125 L 20.515625 0 L 1.15625 0 L 1.15625 -1.8125 L 4.09375 -2.140625 C 4.144531 -3.640625 4.171875 -5.140625 4.171875 -6.640625 C 4.171875 -8.148438 4.171875 -9.679688 4.171875 -11.234375 L 4.171875 -12.5 C 4.171875 -14.019531 4.171875 -15.535156 4.171875 -17.046875 C 4.171875 -18.554688 4.144531 -20.070312 4.09375 -21.59375 L 1.15625 -21.921875 L 1.15625 -23.734375 L 19.78125 -23.734375 L 20.03125 -17.421875 L 17.3125 -17.421875 L 16.5625 -21.734375 L 9.53125 -21.734375 C 9.476562 -20.359375 9.453125 -18.96875 9.453125 -17.5625 C 9.453125 -16.164062 9.453125 -14.742188 9.453125 -13.296875 L 14.09375 -13.296875 L 14.5625 -16.515625 L 16.515625 -16.515625 L 16.515625 -8.109375 L 14.5625 -8.109375 L 14.125 -11.3125 L 9.453125 -11.3125 C 9.453125 -9.664062 9.453125 -8.070312 9.453125 -6.53125 C 9.453125 -5 9.476562 -3.472656 9.53125 -1.953125 L 17.28125 -1.953125 L 18.046875 -6.3125 Z M 20.765625 -6.3125 "/></g></g></g><g fill="#ffffff" fill-opacity="1"><g transform="translate(263.116386, 237.4547)"><g><path d="M 21.265625 -6.671875 L 21.125 -1.15625 C 20.113281 -0.601562 18.988281 -0.179688 17.75 0.109375 C 16.519531 0.398438 15.21875 0.546875 13.84375 0.546875 C 11.976562 0.546875 10.265625 0.285156 8.703125 -0.234375 C 7.148438 -0.753906 5.804688 -1.53125 4.671875 -2.5625 C 3.535156 -3.601562 2.65625 -4.894531 2.03125 -6.4375 C 1.40625 -7.988281 1.09375 -9.789062 1.09375 -11.84375 C 1.09375 -13.894531 1.421875 -15.703125 2.078125 -17.265625 C 2.742188 -18.828125 3.65625 -20.125 4.8125 -21.15625 C 5.976562 -22.195312 7.363281 -22.976562 8.96875 -23.5 C 10.570312 -24.019531 12.316406 -24.28125 14.203125 -24.28125 C 15.359375 -24.28125 16.460938 -24.148438 17.515625 -23.890625 C 18.566406 -23.640625 19.648438 -23.203125 20.765625 -22.578125 L 20.90625 -17.0625 L 18.046875 -17.0625 L 17.3125 -21.625 C 16.300781 -22.0625 15.273438 -22.28125 14.234375 -22.28125 C 13.171875 -22.28125 12.175781 -22.054688 11.25 -21.609375 C 10.320312 -21.160156 9.515625 -20.492188 8.828125 -19.609375 C 8.140625 -18.734375 7.597656 -17.644531 7.203125 -16.34375 C 6.816406 -15.039062 6.625 -13.539062 6.625 -11.84375 C 6.625 -10.15625 6.816406 -8.664062 7.203125 -7.375 C 7.597656 -6.082031 8.140625 -4.992188 8.828125 -4.109375 C 9.515625 -3.234375 10.320312 -2.570312 11.25 -2.125 C 12.175781 -1.675781 13.171875 -1.453125 14.234375 -1.453125 C 15.367188 -1.453125 16.519531 -1.671875 17.6875 -2.109375 L 18.375 -6.671875 Z M 21.265625 -6.671875 "/></g></g></g><g fill="#ffffff" fill-opacity="1"><g transform="translate(285.654127, 237.4547)"><g><path d="M 14.390625 -21.734375 C 14.335938 -20.210938 14.3125 -18.6875 14.3125 -17.15625 C 14.3125 -15.625 14.3125 -14.070312 14.3125 -12.5 L 14.3125 -11.234375 C 14.3125 -9.710938 14.3125 -8.203125 14.3125 -6.703125 C 14.3125 -5.203125 14.335938 -3.691406 14.390625 -2.171875 L 17.6875 -1.8125 L 17.6875 0 L 5.65625 0 L 5.65625 -1.8125 L 8.953125 -2.171875 C 8.992188 -3.671875 9.015625 -5.175781 9.015625 -6.6875 C 9.015625 -8.195312 9.015625 -9.710938 9.015625 -11.234375 L 9.015625 -12.5 C 9.015625 -14.039062 9.015625 -15.578125 9.015625 -17.109375 C 9.015625 -18.648438 8.992188 -20.191406 8.953125 -21.734375 L 4.171875 -21.734375 L 3.4375 -17.0625 L 0.71875 -17.0625 L 0.90625 -23.734375 L 22.421875 -23.734375 L 22.609375 -17.0625 L 19.890625 -17.0625 L 19.171875 -21.734375 Z M 14.390625 -21.734375 "/></g></g></g><g fill="#ffffff" fill-opacity="1"><g transform="translate(308.989018, 237.4547)"><g><path d="M 9.53125 -21.59375 C 9.476562 -20.09375 9.453125 -18.585938 9.453125 -17.078125 C 9.453125 -15.566406 9.453125 -14.039062 9.453125 -12.5 L 9.453125 -11.234375 C 9.453125 -9.710938 9.453125 -8.195312 9.453125 -6.6875 C 9.453125 -5.175781 9.476562 -3.660156 9.53125 -2.140625 L 12.46875 -1.8125 L 12.46875 0 L 1.15625 0 L 1.15625 -1.8125 L 4.09375 -2.140625 C 4.144531 -3.640625 4.171875 -5.140625 4.171875 -6.640625 C 4.171875 -8.148438 4.171875 -9.679688 4.171875 -11.234375 L 4.171875 -12.5 C 4.171875 -14.019531 4.171875 -15.535156 4.171875 -17.046875 C 4.171875 -18.554688 4.144531 -20.070312 4.09375 -21.59375 L 1.15625 -21.921875 L 1.15625 -23.734375 L 12.46875 -23.734375 L 12.46875 -21.921875 Z M 9.53125 -21.59375 "/></g></g></g><g fill="#ffffff" fill-opacity="1"><g transform="translate(322.613116, 237.4547)"><g><path d="M 6.703125 -11.84375 C 6.703125 -10.539062 6.8125 -9.265625 7.03125 -8.015625 C 7.25 -6.773438 7.601562 -5.664062 8.09375 -4.6875 C 8.59375 -3.707031 9.226562 -2.921875 10 -2.328125 C 10.769531 -1.742188 11.710938 -1.453125 12.828125 -1.453125 C 13.941406 -1.453125 14.882812 -1.742188 15.65625 -2.328125 C 16.425781 -2.921875 17.050781 -3.707031 17.53125 -4.6875 C 18.019531 -5.664062 18.378906 -6.773438 18.609375 -8.015625 C 18.835938 -9.265625 18.953125 -10.539062 18.953125 -11.84375 C 18.953125 -13.15625 18.835938 -14.4375 18.609375 -15.6875 C 18.378906 -16.945312 18.019531 -18.066406 17.53125 -19.046875 C 17.050781 -20.023438 16.425781 -20.804688 15.65625 -21.390625 C 14.882812 -21.984375 13.941406 -22.28125 12.828125 -22.28125 C 11.710938 -22.28125 10.769531 -21.984375 10 -21.390625 C 9.226562 -20.804688 8.59375 -20.023438 8.09375 -19.046875 C 7.601562 -18.066406 7.25 -16.945312 7.03125 -15.6875 C 6.8125 -14.4375 6.703125 -13.15625 6.703125 -11.84375 Z M 12.828125 -24.28125 C 14.253906 -24.28125 15.660156 -24.019531 17.046875 -23.5 C 18.429688 -22.976562 19.679688 -22.203125 20.796875 -21.171875 C 21.910156 -20.148438 22.804688 -18.859375 23.484375 -17.296875 C 24.160156 -15.742188 24.5 -13.925781 24.5 -11.84375 C 24.5 -9.769531 24.160156 -7.957031 23.484375 -6.40625 C 22.804688 -4.863281 21.914062 -3.578125 20.8125 -2.546875 C 19.71875 -1.523438 18.46875 -0.753906 17.0625 -0.234375 C 15.664062 0.285156 14.253906 0.546875 12.828125 0.546875 C 11.398438 0.546875 9.984375 0.285156 8.578125 -0.234375 C 7.179688 -0.753906 5.929688 -1.523438 4.828125 -2.546875 C 3.734375 -3.578125 2.847656 -4.863281 2.171875 -6.40625 C 1.492188 -7.957031 1.15625 -9.769531 1.15625 -11.84375 C 1.15625 -13.925781 1.492188 -15.742188 2.171875 -17.296875 C 2.847656 -18.859375 3.738281 -20.148438 4.84375 -21.171875 C 5.957031 -22.203125 7.207031 -22.976562 8.59375 -23.5 C 9.988281 -24.019531 11.398438 -24.28125 12.828125 -24.28125 Z M 12.828125 -24.28125 "/></g></g></g><g fill="#ffffff" fill-opacity="1"><g transform="translate(348.267015, 237.4547)"><g><path d="M 26.625 -21.921875 L 23.265625 -21.453125 L 23.265625 0.359375 L 21.453125 0.359375 L 6.453125 -18.296875 L 6.453125 -2.28125 L 10.578125 -1.8125 L 10.578125 0 L 0.9375 0 L 0.9375 -1.8125 L 4.3125 -2.28125 L 4.3125 -20.984375 L 3.765625 -21.625 L 1.296875 -21.890625 L 1.296875 -23.734375 L 8.4375 -23.734375 L 21.15625 -7.6875 L 21.15625 -21.453125 L 17 -21.921875 L 17 -23.734375 L 26.625 -23.734375 Z M 26.625 -21.921875 "/></g></g></g><g fill="#ffffff" fill-opacity="1"><g transform="translate(135.683199, 262.653381)"><g><path d="M 1.234375 0 L 1.234375 -10.25 L 4.828125 -10.25 C 5.535156 -10.25 6.117188 -10.125 6.578125 -9.875 C 7.046875 -9.632812 7.394531 -9.304688 7.625 -8.890625 C 7.851562 -8.484375 7.96875 -8.03125 7.96875 -7.53125 C 7.96875 -7.082031 7.890625 -6.710938 7.734375 -6.421875 C 7.578125 -6.140625 7.375 -5.914062 7.125 -5.75 C 6.875 -5.582031 6.601562 -5.460938 6.3125 -5.390625 L 6.3125 -5.28125 C 6.625 -5.257812 6.9375 -5.148438 7.25 -4.953125 C 7.570312 -4.753906 7.835938 -4.46875 8.046875 -4.09375 C 8.265625 -3.71875 8.375 -3.257812 8.375 -2.71875 C 8.375 -2.207031 8.253906 -1.742188 8.015625 -1.328125 C 7.785156 -0.921875 7.414062 -0.597656 6.90625 -0.359375 C 6.40625 -0.117188 5.75 0 4.9375 0 Z M 2.484375 -1.09375 L 4.9375 -1.09375 C 5.75 -1.09375 6.328125 -1.25 6.671875 -1.5625 C 7.015625 -1.882812 7.1875 -2.269531 7.1875 -2.71875 C 7.1875 -3.070312 7.097656 -3.394531 6.921875 -3.6875 C 6.742188 -3.976562 6.488281 -4.210938 6.15625 -4.390625 C 5.832031 -4.578125 5.445312 -4.671875 5 -4.671875 L 2.484375 -4.671875 Z M 2.484375 -5.75 L 4.78125 -5.75 C 5.34375 -5.75 5.816406 -5.910156 6.203125 -6.234375 C 6.585938 -6.554688 6.78125 -6.988281 6.78125 -7.53125 C 6.78125 -7.976562 6.625 -8.359375 6.3125 -8.671875 C 6 -8.992188 5.503906 -9.15625 4.828125 -9.15625 L 2.484375 -9.15625 Z M 2.484375 -5.75 "/></g></g></g><g fill="#ffffff" fill-opacity="1"><g transform="translate(146.369154, 262.653381)"><g><path d="M 9.890625 -5.125 C 9.890625 -4.039062 9.691406 -3.101562 9.296875 -2.3125 C 8.910156 -1.53125 8.375 -0.925781 7.6875 -0.5 C 7.007812 -0.0703125 6.234375 0.140625 5.359375 0.140625 C 4.484375 0.140625 3.707031 -0.0703125 3.03125 -0.5 C 2.351562 -0.925781 1.816406 -1.53125 1.421875 -2.3125 C 1.035156 -3.101562 0.84375 -4.039062 0.84375 -5.125 C 0.84375 -6.207031 1.035156 -7.140625 1.421875 -7.921875 C 1.816406 -8.710938 2.351562 -9.320312 3.03125 -9.75 C 3.707031 -10.175781 4.484375 -10.390625 5.359375 -10.390625 C 6.234375 -10.390625 7.007812 -10.175781 7.6875 -9.75 C 8.375 -9.320312 8.910156 -8.710938 9.296875 -7.921875 C 9.691406 -7.140625 9.890625 -6.207031 9.890625 -5.125 Z M 8.6875 -5.125 C 8.6875 -6.007812 8.535156 -6.753906 8.234375 -7.359375 C 7.941406 -7.972656 7.546875 -8.4375 7.046875 -8.75 C 6.546875 -9.070312 5.984375 -9.234375 5.359375 -9.234375 C 4.742188 -9.234375 4.179688 -9.070312 3.671875 -8.75 C 3.171875 -8.4375 2.773438 -7.972656 2.484375 -7.359375 C 2.191406 -6.753906 2.046875 -6.007812 2.046875 -5.125 C 2.046875 -4.238281 2.191406 -3.488281 2.484375 -2.875 C 2.773438 -2.269531 3.171875 -1.804688 3.671875 -1.484375 C 4.179688 -1.171875 4.742188 -1.015625 5.359375 -1.015625 C 5.984375 -1.015625 6.546875 -1.171875 7.046875 -1.484375 C 7.546875 -1.804688 7.941406 -2.269531 8.234375 -2.875 C 8.535156 -3.488281 8.6875 -4.238281 8.6875 -5.125 Z M 8.6875 -5.125 "/></g></g></g><g fill="#ffffff" fill-opacity="1"><g transform="translate(158.615773, 262.653381)"><g><path d="M 9.890625 -5.125 C 9.890625 -4.039062 9.691406 -3.101562 9.296875 -2.3125 C 8.910156 -1.53125 8.375 -0.925781 7.6875 -0.5 C 7.007812 -0.0703125 6.234375 0.140625 5.359375 0.140625 C 4.484375 0.140625 3.707031 -0.0703125 3.03125 -0.5 C 2.351562 -0.925781 1.816406 -1.53125 1.421875 -2.3125 C 1.035156 -3.101562 0.84375 -4.039062 0.84375 -5.125 C 0.84375 -6.207031 1.035156 -7.140625 1.421875 -7.921875 C 1.816406 -8.710938 2.351562 -9.320312 3.03125 -9.75 C 3.707031 -10.175781 4.484375 -10.390625 5.359375 -10.390625 C 6.234375 -10.390625 7.007812 -10.175781 7.6875 -9.75 C 8.375 -9.320312 8.910156 -8.710938 9.296875 -7.921875 C 9.691406 -7.140625 9.890625 -6.207031 9.890625 -5.125 Z M 8.6875 -5.125 C 8.6875 -6.007812 8.535156 -6.753906 8.234375 -7.359375 C 7.941406 -7.972656 7.546875 -8.4375 7.046875 -8.75 C 6.546875 -9.070312 5.984375 -9.234375 5.359375 -9.234375 C 4.742188 -9.234375 4.179688 -9.070312 3.671875 -8.75 C 3.171875 -8.4375 2.773438 -7.972656 2.484375 -7.359375 C 2.191406 -6.753906 2.046875 -6.007812 2.046875 -5.125 C 2.046875 -4.238281 2.191406 -3.488281 2.484375 -2.875 C 2.773438 -2.269531 3.171875 -1.804688 3.671875 -1.484375 C 4.179688 -1.171875 4.742188 -1.015625 5.359375 -1.015625 C 5.984375 -1.015625 6.546875 -1.171875 7.046875 -1.484375 C 7.546875 -1.804688 7.941406 -2.269531 8.234375 -2.875 C 8.535156 -3.488281 8.6875 -4.238281 8.6875 -5.125 Z M 8.6875 -5.125 "/></g></g></g><g fill="#ffffff" fill-opacity="1"><g transform="translate(170.862392, 262.653381)"><g><path d="M 1.234375 0 L 1.234375 -10.25 L 2.484375 -10.25 L 2.484375 -5.171875 L 2.609375 -5.171875 L 7.203125 -10.25 L 8.828125 -10.25 L 4.53125 -5.625 L 8.828125 0 L 7.328125 0 L 3.765625 -4.765625 L 2.484375 -3.328125 L 2.484375 0 Z M 1.234375 0 "/></g></g></g><g fill="#ffffff" fill-opacity="1"><g transform="translate(181.568351, 262.653381)"><g/></g></g><g fill="#ffffff" fill-opacity="1"><g transform="translate(187.052073, 262.653381)"><g><path d="M 6.84375 -7.6875 C 6.78125 -8.195312 6.535156 -8.59375 6.109375 -8.875 C 5.679688 -9.15625 5.160156 -9.296875 4.546875 -9.296875 C 3.867188 -9.296875 3.320312 -9.132812 2.90625 -8.8125 C 2.488281 -8.488281 2.28125 -8.082031 2.28125 -7.59375 C 2.28125 -7.21875 2.390625 -6.914062 2.609375 -6.6875 C 2.835938 -6.46875 3.109375 -6.296875 3.421875 -6.171875 C 3.734375 -6.046875 4.015625 -5.953125 4.265625 -5.890625 L 5.3125 -5.609375 C 5.570312 -5.535156 5.863281 -5.4375 6.1875 -5.3125 C 6.519531 -5.1875 6.835938 -5.019531 7.140625 -4.8125 C 7.441406 -4.601562 7.691406 -4.332031 7.890625 -4 C 8.085938 -3.664062 8.1875 -3.257812 8.1875 -2.78125 C 8.1875 -2.226562 8.039062 -1.726562 7.75 -1.28125 C 7.46875 -0.832031 7.050781 -0.472656 6.5 -0.203125 C 5.945312 0.0546875 5.273438 0.1875 4.484375 0.1875 C 3.378906 0.1875 2.503906 -0.0703125 1.859375 -0.59375 C 1.210938 -1.113281 0.859375 -1.796875 0.796875 -2.640625 L 2.078125 -2.640625 C 2.109375 -2.253906 2.238281 -1.9375 2.46875 -1.6875 C 2.695312 -1.4375 2.988281 -1.25 3.34375 -1.125 C 3.695312 -1 4.078125 -0.9375 4.484375 -0.9375 C 4.953125 -0.9375 5.375 -1.015625 5.75 -1.171875 C 6.132812 -1.328125 6.4375 -1.546875 6.65625 -1.828125 C 6.875 -2.109375 6.984375 -2.429688 6.984375 -2.796875 C 6.984375 -3.140625 6.890625 -3.414062 6.703125 -3.625 C 6.515625 -3.84375 6.265625 -4.019531 5.953125 -4.15625 C 5.640625 -4.289062 5.300781 -4.40625 4.9375 -4.5 L 3.6875 -4.859375 C 2.882812 -5.085938 2.25 -5.414062 1.78125 -5.84375 C 1.3125 -6.269531 1.078125 -6.832031 1.078125 -7.53125 C 1.078125 -8.101562 1.234375 -8.601562 1.546875 -9.03125 C 1.859375 -9.457031 2.28125 -9.789062 2.8125 -10.03125 C 3.34375 -10.269531 3.929688 -10.390625 4.578125 -10.390625 C 5.242188 -10.390625 5.832031 -10.269531 6.34375 -10.03125 C 6.851562 -9.800781 7.257812 -9.484375 7.5625 -9.078125 C 7.863281 -8.671875 8.023438 -8.207031 8.046875 -7.6875 Z M 6.84375 -7.6875 "/></g></g></g><g fill="#ffffff" fill-opacity="1"><g transform="translate(197.557943, 262.653381)"><g><path d="M 0.6875 -9.15625 L 0.6875 -10.25 L 8.375 -10.25 L 8.375 -9.15625 L 5.140625 -9.15625 L 5.140625 0 L 3.90625 0 L 3.90625 -9.15625 Z M 0.6875 -9.15625 "/></g></g></g><g fill="#ffffff" fill-opacity="1"><g transform="translate(208.123849, 262.653381)"><g><path d="M 9.890625 -5.125 C 9.890625 -4.039062 9.691406 -3.101562 9.296875 -2.3125 C 8.910156 -1.53125 8.375 -0.925781 7.6875 -0.5 C 7.007812 -0.0703125 6.234375 0.140625 5.359375 0.140625 C 4.484375 0.140625 3.707031 -0.0703125 3.03125 -0.5 C 2.351562 -0.925781 1.816406 -1.53125 1.421875 -2.3125 C 1.035156 -3.101562 0.84375 -4.039062 0.84375 -5.125 C 0.84375 -6.207031 1.035156 -7.140625 1.421875 -7.921875 C 1.816406 -8.710938 2.351562 -9.320312 3.03125 -9.75 C 3.707031 -10.175781 4.484375 -10.390625 5.359375 -10.390625 C 6.234375 -10.390625 7.007812 -10.175781 7.6875 -9.75 C 8.375 -9.320312 8.910156 -8.710938 9.296875 -7.921875 C 9.691406 -7.140625 9.890625 -6.207031 9.890625 -5.125 Z M 8.6875 -5.125 C 8.6875 -6.007812 8.535156 -6.753906 8.234375 -7.359375 C 7.941406 -7.972656 7.546875 -8.4375 7.046875 -8.75 C 6.546875 -9.070312 5.984375 -9.234375 5.359375 -9.234375 C 4.742188 -9.234375 4.179688 -9.070312 3.671875 -8.75 C 3.171875 -8.4375 2.773438 -7.972656 2.484375 -7.359375 C 2.191406 -6.753906 2.046875 -6.007812 2.046875 -5.125 C 2.046875 -4.238281 2.191406 -3.488281 2.484375 -2.875 C 2.773438 -2.269531 3.171875 -1.804688 3.671875 -1.484375 C 4.179688 -1.171875 4.742188 -1.015625 5.359375 -1.015625 C 5.984375 -1.015625 6.546875 -1.171875 7.046875 -1.484375 C 7.546875 -1.804688 7.941406 -2.269531 8.234375 -2.875 C 8.535156 -3.488281 8.6875 -4.238281 8.6875 -5.125 Z M 8.6875 -5.125 "/></g></g></g><g fill="#ffffff" fill-opacity="1"><g transform="translate(220.370469, 262.653381)"><g><path d="M 1.234375 0 L 1.234375 -10.25 L 4.703125 -10.25 C 5.503906 -10.25 6.160156 -10.113281 6.671875 -9.84375 C 7.191406 -9.570312 7.570312 -9.195312 7.8125 -8.71875 C 8.0625 -8.25 8.1875 -7.710938 8.1875 -7.109375 C 8.1875 -6.429688 8.03125 -5.835938 7.71875 -5.328125 C 7.40625 -4.816406 6.921875 -4.453125 6.265625 -4.234375 L 8.59375 0 L 7.140625 0 L 4.984375 -4.015625 C 4.898438 -4.003906 4.8125 -4 4.71875 -4 L 2.484375 -4 L 2.484375 0 Z M 2.484375 -5.125 L 4.6875 -5.125 C 5.507812 -5.125 6.09375 -5.300781 6.4375 -5.65625 C 6.789062 -6.007812 6.96875 -6.492188 6.96875 -7.109375 C 6.96875 -7.722656 6.789062 -8.21875 6.4375 -8.59375 C 6.082031 -8.96875 5.492188 -9.15625 4.671875 -9.15625 L 2.484375 -9.15625 Z M 2.484375 -5.125 "/></g></g></g><g fill="#ffffff" fill-opacity="1"><g transform="translate(230.896355, 262.653381)"><g><path d="M 1.234375 0 L 1.234375 -10.25 L 7.421875 -10.25 L 7.421875 -9.15625 L 2.484375 -9.15625 L 2.484375 -5.6875 L 7.109375 -5.6875 L 7.109375 -4.578125 L 2.484375 -4.578125 L 2.484375 -1.09375 L 7.5 -1.09375 L 7.5 0 Z M 1.234375 0 "/></g></g></g><g fill="#55298b" fill-opacity="1"><g transform="translate(146.316459, 164.515199)"><g><path d="M 23.546875 -9.453125 L 21.59375 -9.203125 C 21.570312 -8.191406 21.550781 -7.179688 21.53125 -6.171875 C 21.519531 -5.171875 21.515625 -4.148438 21.515625 -3.109375 L 21.515625 -1.5625 C 20.242188 -0.851562 18.976562 -0.328125 17.71875 0.015625 C 16.457031 0.367188 15.101562 0.546875 13.65625 0.546875 C 11.75 0.546875 10.019531 0.234375 8.46875 -0.390625 C 6.925781 -1.023438 5.601562 -1.890625 4.5 -2.984375 C 3.40625 -4.085938 2.5625 -5.394531 1.96875 -6.90625 C 1.382812 -8.414062 1.09375 -10.0625 1.09375 -11.84375 C 1.09375 -13.632812 1.394531 -15.289062 2 -16.8125 C 2.601562 -18.332031 3.460938 -19.640625 4.578125 -20.734375 C 5.703125 -21.835938 7.0625 -22.703125 8.65625 -23.328125 C 10.25 -23.960938 12.035156 -24.28125 14.015625 -24.28125 C 15.179688 -24.28125 16.34375 -24.148438 17.5 -23.890625 C 18.65625 -23.640625 19.875 -23.203125 21.15625 -22.578125 L 21.3125 -17.421875 L 18.40625 -17.421875 L 17.75 -21.453125 C 16.613281 -22.003906 15.457031 -22.28125 14.28125 -22.28125 C 11.9375 -22.28125 10.070312 -21.375 8.6875 -19.5625 C 7.3125 -17.75 6.625 -15.175781 6.625 -11.84375 C 6.625 -10.207031 6.820312 -8.738281 7.21875 -7.4375 C 7.625 -6.144531 8.171875 -5.050781 8.859375 -4.15625 C 9.546875 -3.269531 10.359375 -2.597656 11.296875 -2.140625 C 12.242188 -1.679688 13.273438 -1.453125 14.390625 -1.453125 C 15.085938 -1.453125 15.726562 -1.535156 16.3125 -1.703125 L 16.3125 -3.109375 C 16.3125 -4.128906 16.300781 -5.132812 16.28125 -6.125 C 16.269531 -7.113281 16.253906 -8.113281 16.234375 -9.125 L 13.546875 -9.453125 L 13.546875 -11.265625 L 23.546875 -11.265625 Z M 23.546875 -9.453125 "/></g></g></g><g fill="#55298b" fill-opacity="1"><g transform="translate(202.092692, 164.515199)"><g><path d="M 21.265625 -6.671875 L 21.125 -1.15625 C 20.113281 -0.601562 18.988281 -0.179688 17.75 0.109375 C 16.519531 0.398438 15.21875 0.546875 13.84375 0.546875 C 11.976562 0.546875 10.265625 0.285156 8.703125 -0.234375 C 7.148438 -0.753906 5.804688 -1.53125 4.671875 -2.5625 C 3.535156 -3.601562 2.65625 -4.894531 2.03125 -6.4375 C 1.40625 -7.988281 1.09375 -9.789062 1.09375 -11.84375 C 1.09375 -13.894531 1.421875 -15.703125 2.078125 -17.265625 C 2.742188 -18.828125 3.65625 -20.125 4.8125 -21.15625 C 5.976562 -22.195312 7.363281 -22.976562 8.96875 -23.5 C 10.570312 -24.019531 12.316406 -24.28125 14.203125 -24.28125 C 15.359375 -24.28125 16.460938 -24.148438 17.515625 -23.890625 C 18.566406 -23.640625 19.648438 -23.203125 20.765625 -22.578125 L 20.90625 -17.0625 L 18.046875 -17.0625 L 17.3125 -21.625 C 16.300781 -22.0625 15.273438 -22.28125 14.234375 -22.28125 C 13.171875 -22.28125 12.175781 -22.054688 11.25 -21.609375 C 10.320312 -21.160156 9.515625 -20.492188 8.828125 -19.609375 C 8.140625 -18.734375 7.597656 -17.644531 7.203125 -16.34375 C 6.816406 -15.039062 6.625 -13.539062 6.625 -11.84375 C 6.625 -10.15625 6.816406 -8.664062 7.203125 -7.375 C 7.597656 -6.082031 8.140625 -4.992188 8.828125 -4.109375 C 9.515625 -3.234375 10.320312 -2.570312 11.25 -2.125 C 12.175781 -1.675781 13.171875 -1.453125 14.234375 -1.453125 C 15.367188 -1.453125 16.519531 -1.671875 17.6875 -2.109375 L 18.375 -6.671875 Z M 21.265625 -6.671875 "/></g></g></g><path stroke-linecap="butt" transform="matrix(0.752449, 0, 0, 0.75, 70.763006, 256.020744)" fill="none" stroke-linejoin="miter" d="M -0.00171108 2.998383 L 71.769111 2.998383 " stroke="#ffffff" stroke-width="6" stroke-opacity="1" stroke-miterlimit="4"/><path stroke-linecap="butt" transform="matrix(0.752449, 0, 0, 0.75, 250.410984, 256.020744)" fill="none" stroke-linejoin="miter" d="M -0.00110015 2.998383 L 71.769722 2.998383 " stroke="#ffffff" stroke-width="6" stroke-opacity="1" stroke-miterlimit="4"/></svg>